<svg enable-background="new 0 0 256 256" height="512" viewBox="0 0 256 256" width="512" xmlns="http://www.w3.org/2000/svg"><g id="Layer_66"><g><g><g><path d="m35.388 128.514c-.619.1-1.249.166-1.896.166-2.651 0-5.091-.88-7.067-2.349-.88 4.299-.966 10.748 2.39 19.138 3.809 9.524-10.547 17.44-9.279 30.72l14.331-3.618c1.698-.428 3.347-1.034 4.918-1.808l7.028-3.465c2.699-1.331 4.408-4.079 4.408-7.088v-8.62c-8.33-4.541-14.165-13.13-14.833-23.076z" fill="#fcdd86"/></g></g><g><g><path d="m103.151 187.369c-5.686.915-10.698-2.922-11.701-8.177-10.441 18.322-21.038 9.757-25.553 4.539-.371-.429-.533-.934-.544-1.434h-3.222c-.011.5-.173 1.005-.544 1.434-4.97 5.744-17.307 15.549-28.696-10.914l-19.347 4.884c-4.946 1.245-8.509 5.562-8.792 10.655l-2.247 61.724c-.104 1.857 1.375 3.42 3.235 3.42h17.997c1.21 0 2.191-.981 2.191-2.191v-38.583l3.178 10.18c2.078 6.656 3.135 13.589 3.135 20.562v7.84c0 1.21.981 2.191 2.191 2.191h43.453l.955-17.426c.236-4.234 3.197-7.823 7.309-8.858l11.841-2.98c.661-2.278 1.196-3.88 3.565-11.51v10.612l3.662-.922 5.681-2.801c.24-.203 5.79-2 5.79-8.13v-3.813c-7.578-3.808-12.941-11.427-13.537-20.302z" fill="#fc657e"/></g></g><g><g><path d="m92.56 172.275c-3.163-.947-4.681-1.994-9.233-4.161-3.676 4.305-9.411 9.738-16.296 11.874-1.62.503-2.244 2.46-1.134 3.743 4.515 5.219 15.112 13.783 25.553-4.539-.473-2.477-.024-4.886 1.11-6.917z" fill="#edf4fc"/></g></g><g><g><path d="m60.453 179.988c-6.885-2.135-12.62-7.569-16.296-11.874l-5.371 2.648c-1.571.774-3.219 1.38-4.918 1.808l-.977.247c11.389 26.463 23.726 16.658 28.696 10.914 1.109-1.283.486-3.241-1.134-3.743z" fill="#edf4fc"/></g></g><g><g><path d="m81.67 167.297c-2.699-1.331-4.408-4.079-4.408-7.088v-8.62c-4.027 2.195-8.635 3.444-13.521 3.444s-9.494-1.249-13.52-3.444v8.62c0 3.009-1.709 5.757-4.408 7.088l-1.657.817c3.676 4.305 9.411 9.738 16.296 11.874 1.078.335 1.7 1.314 1.678 2.309h3.222c-.022-.996.6-1.975 1.678-2.309 6.885-2.135 12.62-7.569 16.296-11.874z" fill="#f9d0b4"/></g></g><g><g><g><path d="m101.93 210.255c-1.221-.192-2.396.549-2.763 1.73-.912 2.938-1.552 4.981-2.032 6.514-.669 2.136-1.03 3.287-1.38 4.475-.391 1.323.365 2.714 1.689 3.105.236.07.475.104.709.104.872 0 1.689-.46 2.141-1.21.37.217.801.341 1.261.341 1.381 0 2.5-1.119 2.5-2.5v-10.087c0-1.237-.903-2.287-2.125-2.472z"/></g></g><g><g><path d="m77.884 251h-43.143v-7.531c0-7.233-1.093-14.402-3.249-21.308l-3.178-10.18c-.368-1.179-1.541-1.92-2.763-1.727-1.221.187-2.123 1.236-2.123 2.472v38.274h-17.687c-.278 0-.457-.146-.538-.231-.082-.087-.217-.272-.199-.598l2.244-61.677c.224-4.022 3-7.386 6.908-8.369l19.347-4.884c1.339-.338 2.15-1.697 1.812-3.036-.338-1.338-1.698-2.146-3.036-1.812l-19.345 4.883c-6.041 1.52-10.332 6.72-10.681 12.988l-2.244 61.677c-.087 1.567.481 3.122 1.561 4.263 1.08 1.142 2.6 1.796 4.171 1.796h17.997c2.586 0 4.691-2.104 4.691-4.69v-20.991c.873 4.322 1.313 8.724 1.313 13.15v7.841c0 2.586 2.104 4.69 4.69 4.69h43.453c1.381 0 2.5-1.119 2.5-2.5s-1.12-2.5-2.501-2.5z"/></g></g></g><g><g><path d="m101.057 126.33c-1.976 1.469-4.415 2.349-7.067 2.349-.647 0-1.277-.066-1.896-.166-.667 9.946-6.503 18.535-14.833 23.075v8.62c0 3.009 1.709 5.757 4.408 7.088l7.028 3.465c1.243.613 2.536 1.115 3.862 1.512.652-1.167 1.525-2.192 2.563-3.022-.002.001-.003.002-.005.004v-8.927c0-5.344 1.283-10.386 3.545-14.847.002-.005.003-.01.005-.014 3.356-8.389 3.27-14.838 2.39-19.137z" fill="#fcdd86"/></g></g><g><g><path d="m93.991 104.944c-.621 0-1.229.052-1.824.145v21.519c0 .641-.029 1.275-.072 1.906.619.1 1.249.166 1.896.166 6.554 0 11.868-5.313 11.868-11.868 0-6.554-5.314-11.868-11.868-11.868z" fill="#f9d0b4"/></g></g><g><g><path d="m90.418 101.478c-2.876-.667-6.369-2.333-10.372-5.97-.792-.719-2.013-.66-2.709.152-4.329 5.053-19.68 20.383-42.021 14.02v16.928c0 15.634 12.791 28.425 28.425 28.425s28.425-12.791 28.425-28.425v-22.965c.001-1.044-.73-1.929-1.748-2.165z" fill="#f9d0b4"/></g></g><g><g><path d="m35.316 126.608v-16.928c-1.952-.556-3.956-1.275-6.012-2.183-1.325-.585-2.874-.316-3.931.675-2.306 2.162-3.749 5.229-3.749 8.64 0 6.554 5.313 11.868 11.868 11.868.647 0 1.277-.066 1.896-.166-.042-.631-.072-1.265-.072-1.906z" fill="#f9d0b4"/></g></g><g><g><path d="m63.742 62.829c-21.259 0-38.653 17.394-38.653 38.653v6.985c.097-.097.185-.201.285-.295 1.057-.991 2.605-1.261 3.931-.675 2.056.908 4.06 1.627 6.012 2.183 22.341 6.364 37.692-8.967 42.021-14.02.696-.812 1.917-.872 2.709-.152 4.003 3.637 7.496 5.303 10.372 5.97 1.017.236 1.748 1.121 1.748 2.165v1.446c.595-.092 1.203-.145 1.824-.145 3.284 0 6.255 1.334 8.404 3.489v-6.952c0-21.258-17.394-38.652-38.653-38.652z" fill="#fcdd86"/></g></g><g><g><path d="m93.991 102.444c-.444 0-.882.022-1.315.063-1.375.128-2.386 1.346-2.258 2.721.128 1.374 1.344 2.368 2.721 2.258.281-.026.564-.041.852-.041 5.166 0 9.368 4.202 9.368 9.368 0 5.165-4.202 9.367-9.368 9.367-.298 0-.592-.019-.881-.05-1.383-.146-2.606.843-2.755 2.216s.843 2.606 2.216 2.755c.484.053.962.079 1.42.079 7.922 0 14.368-6.445 14.368-14.367-.001-7.923-6.446-14.369-14.368-14.369z"/></g></g><g><g><path d="m74.013 134.088c-1.059-.888-2.635-.748-3.522.31-1.387 1.655-3.755 2.643-6.336 2.643s-4.949-.987-6.336-2.643c-.886-1.057-2.462-1.197-3.522-.31-1.058.887-1.197 2.464-.31 3.522 2.325 2.773 6.126 4.43 10.168 4.43s7.843-1.656 10.168-4.43c.887-1.058.748-2.635-.31-3.522z"/></g></g><g><g><g><path d="m90.982 99.042c-2.964-.687-6.078-2.498-9.256-5.386-.88-.8-2.067-1.213-3.245-1.141-1.188.075-2.268.614-3.042 1.518-3.954 4.615-18.483 19.212-39.438 13.242-.754-.216-1.565-.063-2.191.409-.626.473-.994 1.211-.994 1.995v16.928c0 17.053 13.873 30.926 30.925 30.926s30.925-13.873 30.925-30.926v-22.964c.001-2.205-1.513-4.097-3.684-4.601zm-1.315 27.565c0 14.296-11.63 25.926-25.925 25.926s-25.925-11.63-25.925-25.926v-13.742c21.415 4.409 36.254-9.724 41.003-15.1 3.607 3.179 7.253 5.23 10.847 6.103z"/></g></g></g><g><g><path d="m28.294 109.783c2.099.927 4.232 1.701 6.338 2.301 1.326.379 2.711-.392 3.089-1.72s-.392-2.711-1.72-3.089c-1.885-.537-3.798-1.231-5.687-2.066-2.247-.994-4.856-.545-6.65 1.14-2.885 2.704-4.539 6.519-4.539 10.463 0 7.923 6.445 14.368 14.368 14.368.402 0 .797-.021 1.189-.057 1.375-.127 2.386-1.346 2.258-2.72-.127-1.376-1.346-2.395-2.72-2.259-.24.022-.482.035-.728.035-5.166 0-9.368-4.202-9.368-9.368 0-2.606 1.051-5.026 2.959-6.816.329-.307.805-.393 1.211-.212z"/></g></g><g><g><path d="m63.742 60.329c-22.692 0-41.153 18.461-41.153 41.153v6.393c0 1.381 1.119 2.5 2.5 2.5s2.5-1.119 2.5-2.5v-6.393c0-19.935 16.218-36.153 36.153-36.153s36.153 16.219 36.153 36.153v6.226c0 1.381 1.119 2.5 2.5 2.5s2.5-1.119 2.5-2.5v-6.226c0-22.692-18.461-41.153-41.153-41.153z"/></g></g><g><g><path d="m103.635 126.497c-.242-1.359-1.542-2.27-2.9-2.022-1.359.242-2.265 1.54-2.023 2.899.907 5.093.089 11.029-2.366 17.166-.014.036-.027.072-.04.107-.447 1.259.177 2.656 1.428 3.156.305.122.619.18.928.18.992 0 1.931-.595 2.322-1.572.006-.016.012-.031.018-.048 2.831-7.092 3.717-13.776 2.633-19.866z"/></g></g><g><g><path d="m31.137 144.539c-2.457-6.141-3.274-12.078-2.365-17.172.243-1.359-.662-2.658-2.021-2.9-1.36-.244-2.658.661-2.9 2.021-1.089 6.101-.2 12.799 2.644 19.908 1.381 3.453-.451 6.737-3.555 11.811-2.992 4.892-6.384 10.436-5.945 17.546.082 1.325 1.182 2.346 2.493 2.346.052 0 .104-.002.156-.005 1.378-.085 2.426-1.271 2.341-2.649-.342-5.537 2.486-10.158 5.22-14.628 3.105-5.075 6.315-10.322 3.932-16.278z"/></g></g><g><g><g><path d="m94.876 171.336c-.285-.702-.873-1.237-1.599-1.455-1.208-.362-2.377-.82-3.475-1.36l-5.371-2.648c-1.026-.507-2.264-.251-3.006.618-3.4 3.981-8.787 9.141-15.135 11.11-1.592.493-2.814 1.736-3.269 3.325-.444 1.556-.077 3.216.984 4.44 3.018 3.487 7.742 7.486 13.535 7.486.405 0 .816-.02 1.231-.06 5.485-.538 10.481-4.697 14.85-12.362.295-.518.396-1.123.284-1.707-.347-1.818-.058-3.627.837-5.23.37-.661.419-1.455.134-2.157zm-6.029 7.36c-3.389 5.697-6.94 8.766-10.563 9.12-4.3.43-8.239-3.168-10.308-5.505 6.607-2.113 12.146-6.938 15.958-11.11l3.658 1.805c.54.266 1.093.515 1.657.746-.459 1.595-.597 3.262-.402 4.944z"/></g></g></g><g><g><g><path d="m64.461 180.926c-.455-1.589-1.676-2.832-3.268-3.325-6.35-1.97-11.736-7.129-15.136-11.11-.743-.869-1.981-1.124-3.006-.618l-5.371 2.648c-1.408.694-2.896 1.241-4.425 1.626l-.977.247c-.71.18-1.305.661-1.629 1.317-.324.657-.344 1.422-.054 2.095 4.959 11.522 10.823 17.883 17.429 18.904.613.095 1.23.142 1.85.142 4.616 0 9.381-2.605 13.604-7.485 1.06-1.226 1.427-2.887.983-4.441zm-15.673 6.843c-4.281-.662-8.545-5.252-12.414-13.325 1.205-.397 2.382-.879 3.517-1.438l3.657-1.804c3.811 4.172 9.349 8.996 15.958 11.11-2.154 2.435-6.25 6.141-10.718 5.457z"/></g></g></g><g><g><path d="m84.433 165.872-1.658-.817c-1.858-.916-3.013-2.772-3.013-4.846v-7.771c0-1.381-1.119-2.5-2.5-2.5s-2.5 1.119-2.5 2.5v7.771c0 3.991 2.224 7.566 5.802 9.33l1.657.817c.355.175.732.259 1.104.259.922 0 1.809-.513 2.244-1.395.611-1.238.102-2.737-1.136-3.348z"/></g></g><g><g><path d="m65.176 179.797h-2.869c-1.381 0-2.5 1.119-2.5 2.5s1.119 2.5 2.5 2.5h2.869c1.381 0 2.5-1.119 2.5-2.5s-1.119-2.5-2.5-2.5z"/></g></g><g><g><path d="m50.221 150c-1.381 0-2.5 1.119-2.5 2.5v7.709c0 2.073-1.154 3.93-3.014 4.846l-1.657.817c-1.238.611-1.747 2.11-1.136 3.349.436.882 1.322 1.395 2.244 1.395.371 0 .749-.084 1.104-.259l1.656-.817c3.579-1.764 5.803-5.339 5.803-9.33v-7.71c0-1.381-1.119-2.5-2.5-2.5z"/></g></g><g><g><path d="m219.478 99.936c-.017-.856-.702-1.561-1.558-1.586-12.534-.367-19.139-5.335-21.676-7.823-.693-.679-1.811-.607-2.415.152-11.02 13.859-27.277 11.903-32.743 10.759-.993-.208-1.946.541-1.947 1.556v24.291c0 16.595 13.577 30.172 30.172 30.172 16.595 0 30.172-13.577 30.172-30.172v-26.877c-.001-.158-.002-.315-.005-.472z" fill="#f9c1a8"/></g></g><g><g><path d="m212.921 67.932c-3.215 0-6.221.908-8.804 2.458-3.017-5.036-8.514-8.436-14.78-8.436h-8.85c-17.129 0-31.144 14.015-31.144 31.144v13.955c2.155-1.725 4.885-2.762 7.86-2.762.659 0 1.305.056 1.936.154v-1.45c.001-1.015.954-1.763 1.947-1.556 5.466 1.144 21.723 3.1 32.743-10.759.604-.759 1.722-.831 2.415-.152 2.538 2.488 9.142 7.455 21.676 7.823.855.025 1.541.73 1.558 1.586.003.157.005.314.005.472v4.036c.632-.098 1.277-.154 1.936-.154 3.396 0 6.472 1.35 8.737 3.535v-22.659c0-9.479-7.756-17.235-17.235-17.235z" fill="#414344"/></g></g><g><g><path d="m221.419 104.29c-.659 0-1.305.055-1.936.154v22.842c0 .68-.031 1.354-.076 2.023.657.106 1.326.176 2.012.176 6.957 0 12.597-5.64 12.597-12.597 0-6.958-5.64-12.598-12.597-12.598z" fill="#f9c1a8"/></g></g><g><g><path d="m159.138 127.285v-22.842c-.632-.098-1.277-.154-1.936-.154-6.957 0-12.597 5.64-12.597 12.597s5.64 12.597 12.597 12.597c.687 0 1.355-.07 2.012-.176-.045-.668-.076-1.341-.076-2.022z" fill="#f9c1a8"/></g></g><g><g><path d="m250.159 189.158c-.29-5.203-3.929-9.612-8.982-10.884l-23.432-5.898-8.282-4.083c-3.56-1.755-5.814-5.38-5.814-9.349v-5.136c-4.271 2.326-9.158 3.649-14.339 3.649-4.831 0-9.402-1.157-13.461-3.198v4.685c0 3.969-2.254 7.593-5.814 9.349l-7.486 3.691c4.449 7.383-1.719 16.784-10.414 15.385 0 0 0 0 0-.001-.577 8.595-5.622 16.017-12.823 19.938v4.18c0 6.127 5.553 7.929 5.79 8.13l5.681 2.801 19.069 4.8c4.112 1.035 7.073 4.624 7.309 8.857l.955 17.426h72.073c1.9 0 3.411-1.597 3.305-3.494z" fill="#70d6f9"/></g></g><g><g><path d="m209.463 168.293c-3.56-1.755-5.814-5.38-5.814-9.349v-5.136c-4.271 2.326-9.158 3.649-14.339 3.649-4.831 0-9.402-1.157-13.461-3.198v4.685c0 3.969-2.254 7.593-5.814 9.349l-1.301.641c3.93 7.626 11.887 12.875 21.015 12.875s17.084-5.25 21.015-12.875z" fill="#f9c1a8"/></g></g><g><g><g><path d="m221.977 99.887c-.044-2.2-1.795-3.973-3.984-4.035-11.859-.349-17.937-5.088-20-7.11-.834-.816-1.975-1.236-3.144-1.173-1.164.072-2.25.64-2.978 1.556-9.97 12.536-24.495 11.079-30.274 9.867-1.221-.252-2.477.049-3.447.836-.96.779-1.512 1.933-1.513 3.188v24.271c0 18.016 14.657 32.672 32.672 32.672s32.672-14.656 32.672-32.672v-26.877zm-4.995 27.398c0 15.259-12.414 27.672-27.672 27.672s-27.672-12.413-27.672-27.672v-23.194c6.166 1.091 22.26 2.329 33.551-11.126 3.318 2.981 10.095 7.313 21.793 7.853z"/></g></g></g><g><g><g><g><path d="m212.921 65.432c-2.75 0-5.474.59-7.995 1.721-3.721-4.799-9.503-7.698-15.59-7.698h-8.85c-18.551 0-33.644 15.093-33.644 33.644v13.955c0 .961.551 1.837 1.417 2.253.867.417 1.895.299 2.645-.301 1.811-1.449 3.988-2.215 6.298-2.215.5 0 1.022.042 1.554.124.721.108 1.455-.098 2.009-.572.554-.476.873-1.169.873-1.898v-.353c6.165 1.09 22.26 2.327 33.551-11.126 3.318 2.981 10.095 7.313 21.793 7.853v3.626c0 .729.319 1.423.873 1.898s1.287.682 2.009.572c.532-.082 1.054-.124 1.554-.124 2.62 0 5.106 1.007 7.002 2.835.476.458 1.101.7 1.736.7.33 0 .662-.065.977-.199.923-.393 1.522-1.298 1.522-2.301v-22.659c.001-10.882-8.852-19.735-19.734-19.735zm14.735 37.707c-1.771-.807-3.692-1.265-5.673-1.338l-.005-1.914c-.044-2.2-1.795-3.973-3.984-4.035-11.859-.349-17.937-5.088-20-7.11-.834-.816-1.975-1.236-3.144-1.173-1.164.072-2.25.64-2.978 1.556-9.97 12.537-24.494 11.078-30.274 9.867-1.221-.252-2.477.049-3.447.836-.638.518-1.095 1.2-1.331 1.968-1.707.044-3.392.382-4.978.986v-9.684c0-15.794 12.85-28.644 28.644-28.644h8.85c5.125 0 9.967 2.767 12.636 7.221.341.568.894.979 1.537 1.14.643.162 1.324.06 1.893-.28 2.293-1.376 4.894-2.103 7.519-2.103 8.125 0 14.735 6.61 14.735 14.735z"/></g></g></g></g><g><g><path d="m231.539 200.974c-1.381 0-2.5 1.119-2.5 2.5v49.248c0 1.381 1.119 2.5 2.5 2.5s2.5-1.119 2.5-2.5v-49.248c0-1.381-1.119-2.5-2.5-2.5z"/></g></g><g><g><path d="m147.959 200.974c-1.381 0-2.5 1.119-2.5 2.5v17.109c0 1.381 1.119 2.5 2.5 2.5s2.5-1.119 2.5-2.5v-17.109c0-1.381-1.119-2.5-2.5-2.5z"/></g></g><g><g><g><path d="m221.418 101.79c-.754 0-1.535.062-2.318.183-1.218.188-2.118 1.237-2.118 2.471v22.842c0 .55-.022 1.139-.07 1.855-.087 1.289.823 2.432 2.098 2.637.869.14 1.657.207 2.409.207 8.325 0 15.097-6.772 15.097-15.097s-6.773-15.098-15.098-15.098zm.564 25.179v-20.163c5.306.294 9.533 4.703 9.533 10.082.001 5.378-4.226 9.787-9.533 10.081z"/></g></g></g><g><g><g><path d="m161.638 127.285v-22.842c0-1.233-.899-2.282-2.118-2.471-.784-.121-1.564-.183-2.318-.183-8.325 0-15.097 6.772-15.097 15.098 0 8.324 6.772 15.097 15.097 15.097.751 0 1.54-.067 2.409-.207 1.275-.205 2.184-1.348 2.098-2.636-.048-.718-.071-1.307-.071-1.856zm-5-.316c-5.306-.294-9.533-4.703-9.533-10.081 0-5.379 4.227-9.788 9.533-10.082z"/></g></g></g><g><g><g><path d="m175.849 152.469c-1.381 0-2.5 1.119-2.5 2.5v3.976c0 3.039-1.693 5.762-4.419 7.106l-7.131 3.516c-1.238.61-1.748 2.109-1.137 3.348.435.883 1.322 1.396 2.244 1.396.371 0 .748-.083 1.104-.259l7.132-3.516c4.446-2.193 7.208-6.635 7.208-11.591v-3.976c-.001-1.381-1.121-2.5-2.501-2.5z"/></g></g><g><g><path d="m255.991 249.869-3.336-60.85c-.353-6.33-4.72-11.622-10.868-13.171l-23.175-5.832-8.043-3.966c-2.726-1.345-4.419-4.067-4.419-7.106v-4.111c0-1.381-1.119-2.5-2.5-2.5s-2.5 1.119-2.5 2.5v4.111c0 4.956 2.762 9.397 7.208 11.591l8.282 4.083c.158.078.324.14.495.183l23.432 5.897c4.014 1.011 6.866 4.466 7.096 8.597l3.336 60.85c.017.303-.131.507-.221.602-.089.095-.285.254-.588.254h-72.073c-1.381 0-2.5 1.119-2.5 2.5s1.119 2.5 2.5 2.5h72.073c1.59 0 3.128-.662 4.221-1.817 1.092-1.157 1.668-2.73 1.58-4.315z"/></g></g></g><g><g><path d="m211.571 167.535c-1.202-.678-2.728-.251-3.405.95-3.764 6.677-10.82 10.824-18.417 10.824-7.66 0-14.745-4.198-18.491-10.956-.669-1.208-2.191-1.646-3.398-.975-1.208.669-1.644 2.191-.975 3.398 4.627 8.347 13.388 13.532 22.864 13.532 9.398 0 18.125-5.123 22.772-13.369.679-1.202.253-2.726-.95-3.404z"/></g></g><g><g><path d="m199.888 134.184c-1.059-.888-2.635-.747-3.522.311-1.403 1.674-3.8 2.674-6.411 2.674s-5.007-1-6.41-2.674c-.887-1.058-2.464-1.197-3.522-.311-1.059.887-1.198 2.463-.311 3.521 2.342 2.795 6.171 4.463 10.243 4.463s7.901-1.668 10.243-4.463c.886-1.058.748-2.635-.31-3.521z"/></g></g><g><g><path d="m202.381 114.06c-2.192 0-3.97 1.777-3.97 3.97 0 2.192 1.777 3.97 3.97 3.97s3.97-1.777 3.97-3.97c0-2.192-1.777-3.97-3.97-3.97z"/></g></g><g><g><path d="m177.619 114.06c-2.192 0-3.97 1.777-3.97 3.97 0 2.192 1.777 3.97 3.97 3.97s3.97-1.777 3.97-3.97c0-2.192-1.778-3.97-3.97-3.97z"/></g></g><g><g><path d="m76.381 116.06c-2.192 0-3.97 1.777-3.97 3.97 0 2.192 1.777 3.97 3.97 3.97s3.97-1.777 3.97-3.97c0-2.192-1.777-3.97-3.97-3.97z"/></g></g><g><g><path d="m51.619 116.06c-2.192 0-3.97 1.777-3.97 3.97 0 2.192 1.777 3.97 3.97 3.97s3.97-1.777 3.97-3.97c0-2.192-1.778-3.97-3.97-3.97z"/></g></g><g><g><path d="m149.501 164.368h-.028c-7.711 0-14.547-3.737-18.801-9.498-1.339-1.813-4.006-1.813-5.344 0-4.255 5.76-11.09 9.498-18.801 9.498-.244 0-.487-.004-.729-.012-1.485-.048-2.708 1.148-2.708 2.634v18.732c0 13.505 11.049 24.554 24.554 24.554 13.505 0 24.554-11.049 24.554-24.554v-18.714c-.001-1.479-1.217-2.642-2.697-2.64z" fill="#f9c1a8"/></g></g><g><g><path d="m128 127.447c-18.161 0-32.883 14.722-32.883 32.883v8.927c1.754-1.404 3.975-2.248 6.396-2.248.536 0 1.062.045 1.576.125v-.144c0-1.486 1.223-2.682 2.708-2.634.242.008.485.012.729.012 7.711 0 14.547-3.737 18.801-9.498 1.339-1.813 4.006-1.813 5.344 0 4.255 5.76 11.09 9.498 18.801 9.498h.028c1.48-.002 2.695 1.16 2.695 2.64v.125c.514-.08 1.039-.125 1.576-.125 2.763 0 5.266 1.099 7.11 2.876v-9.556c.002-18.159-14.72-32.881-32.881-32.881z" fill="#414344"/></g></g><g><g><path d="m153.772 167.009c-.536 0-1.062.045-1.576.125v18.588c0 .554-.025 1.102-.062 1.647.534.086 1.079.143 1.637.143 5.662 0 10.251-4.59 10.251-10.251.002-5.662-4.588-10.252-10.25-10.252z" fill="#f9c1a8"/></g></g><g><g><path d="m103.089 185.722v-18.588c-.514-.08-1.039-.125-1.576-.125-5.662 0-10.251 4.59-10.251 10.251 0 5.662 4.59 10.251 10.251 10.251.559 0 1.103-.057 1.637-.143-.035-.544-.061-1.092-.061-1.646z" fill="#f9c1a8"/></g></g><g><g><path d="m177.161 236.074c-.236-4.234-3.197-7.822-7.309-8.857l-19.069-4.8-6.74-3.323c-2.897-1.428-4.731-4.378-4.731-7.608v-4.18c-3.476 1.893-7.453 2.97-11.669 2.97-3.931 0-7.652-.942-10.955-2.603v3.813c0 3.23-1.834 6.179-4.731 7.608l-6.74 3.323-19.069 4.8c-4.112 1.035-7.074 4.624-7.309 8.858l-.955 17.425h100.232z" fill="#f5c84c"/></g></g><g><g><path d="m144.043 219.094c-2.897-1.428-4.731-4.378-4.731-7.608v-4.18c-3.476 1.893-7.453 2.97-11.669 2.97-3.931 0-7.652-.942-10.955-2.603v3.813c0 3.23-1.834 6.179-4.731 7.608l-1.059.522c3.199 6.206 9.673 10.478 17.102 10.478s13.903-4.272 17.102-10.478z" fill="#f9c1a8"/></g></g><g><g><path d="m162.008 238.487c-1.381 0-2.5 1.119-2.5 2.5v12.249c0 1.381 1.119 2.5 2.5 2.5s2.5-1.119 2.5-2.5v-12.249c0-1.381-1.119-2.5-2.5-2.5z"/></g></g><g><g><path d="m93.992 238.487c-1.381 0-2.5 1.119-2.5 2.5v12.249c0 1.381 1.119 2.5 2.5 2.5s2.5-1.119 2.5-2.5v-12.249c0-1.381-1.119-2.5-2.5-2.5z"/></g></g><g><g><path d="m153.772 164.509c-.471 0-.956.028-1.442.085-1.371.159-2.354 1.4-2.195 2.771s1.391 2.355 2.772 2.195c.284-.033.572-.052.865-.052 4.274 0 7.751 3.478 7.751 7.752 0 4.273-3.477 7.751-7.751 7.751-.271 0-.552-.019-.859-.057-1.369-.182-2.619.802-2.791 2.171-.171 1.37.801 2.619 2.171 2.79.514.064.998.096 1.479.096 7.031 0 12.751-5.72 12.751-12.751s-5.719-12.751-12.751-12.751z"/></g></g><g><g><path d="m104.94 187.21c-.139-1.373-1.361-2.378-2.739-2.235-.227.022-.456.037-.688.037-4.274 0-7.751-3.478-7.751-7.751 0-4.274 3.477-7.752 7.751-7.752.207 0 .412.01.615.027 1.38.116 2.586-.901 2.705-2.277s-.901-2.587-2.277-2.705c-.343-.029-.691-.045-1.042-.045-7.031 0-12.751 5.721-12.751 12.752s5.72 12.751 12.751 12.751c.402 0 .799-.022 1.191-.063 1.373-.138 2.374-1.365 2.235-2.739z"/></g></g><g><g><path d="m179.657 235.936c-.298-5.355-3.994-9.834-9.195-11.144l-18.812-4.734-6.502-3.206c-2.058-1.015-3.336-3.07-3.336-5.365v-3.361c0-1.381-1.119-2.5-2.5-2.5s-2.5 1.119-2.5 2.5v3.361c0 4.214 2.347 7.987 6.125 9.85l6.74 3.323c.158.078.324.139.495.183l19.069 4.8c3.068.771 5.248 3.413 5.423 6.569l.812 14.788h-94.952l.811-14.787c.176-3.158 2.355-5.8 5.423-6.571l19.069-4.8c.171-.044.337-.104.495-.183l6.739-3.323c3.779-1.862 6.126-5.636 6.126-9.85v-2.944c0-1.381-1.119-2.5-2.5-2.5s-2.5 1.119-2.5 2.5v2.944c0 2.295-1.278 4.351-3.336 5.365l-6.502 3.206-18.812 4.734c-5.202 1.31-8.896 5.788-9.195 11.146l-.956 17.426c-.038.686.208 1.356.681 1.855s1.13.782 1.817.782h100.232c.687 0 1.343-.282 1.815-.781s.718-1.17.681-1.855z"/></g></g><g><g><path d="m146.019 217.994c-1.207-.673-2.729-.24-3.401.966-2.972 5.325-8.573 8.634-14.617 8.634-5.961 0-11.524-3.241-14.518-8.46-.687-1.198-2.215-1.613-3.413-.924-1.198.687-1.611 2.215-.924 3.412 3.883 6.768 11.108 10.972 18.855 10.972 7.855 0 15.129-4.291 18.983-11.198.672-1.206.24-2.729-.965-3.402z"/></g></g><g><g><path d="m136.55 190.979c-1.058-.888-2.635-.748-3.522.31-1.055 1.259-2.872 2.011-4.86 2.011s-3.805-.752-4.86-2.011c-.886-1.057-2.463-1.196-3.522-.31-1.058.888-1.197 2.464-.31 3.522 1.994 2.378 5.244 3.798 8.692 3.798s6.698-1.42 8.692-3.798c.887-1.058.748-2.634-.31-3.522z"/></g></g><g><g><path d="m138.28 174.96c-1.784 0-3.231 1.446-3.231 3.231 0 1.784 1.446 3.23 3.231 3.23 1.784 0 3.231-1.446 3.231-3.23-.001-1.785-1.447-3.231-3.231-3.231z"/></g></g><g><g><path d="m118.129 174.96c-1.784 0-3.231 1.446-3.231 3.231 0 1.784 1.446 3.23 3.231 3.23 1.784 0 3.231-1.446 3.231-3.23-.001-1.785-1.447-3.231-3.231-3.231z"/></g></g><g><g><path d="m153.196 163.389c-1.676-1.674-3.597-1.5-3.698-1.521-.103-.025-10.227.436-16.815-8.482-1.114-1.509-2.821-2.374-4.683-2.374s-3.569.865-4.683 2.374c-3.923 5.312-10.2 8.482-16.791 8.482-.217 0-.433-.004-.648-.011-1.389-.046-2.72.467-3.725 1.439-1.009.977-1.564 2.288-1.564 3.693v18.732c0 14.917 12.136 27.054 27.054 27.054s27.054-12.137 27.054-27.054v-18.714c0-1.366-.533-2.652-1.501-3.618zm-3.499 22.334c0 12.16-9.893 22.054-22.054 22.054s-22.054-9.894-22.054-22.054v-18.733c0-.017 0-.062.127-.135.269.009.539.013.81.013 8.17 0 15.95-3.93 20.812-10.512.222-.3.51-.345.662-.345s.44.045.662.345c4.862 6.582 12.642 10.512 20.812 10.512h.032c.082 0 .13.032.191.141z"/></g></g><g><g><path d="m128 124.947c-19.51 0-35.383 15.872-35.383 35.382v8.421c0 1.381 1.119 2.5 2.5 2.5s2.5-1.119 2.5-2.5v-8.421c0-16.753 13.63-30.382 30.383-30.382s30.382 13.629 30.382 30.382v8.546c0 1.381 1.119 2.5 2.5 2.5s2.5-1.119 2.5-2.5v-8.546c0-19.51-15.872-35.382-35.382-35.382z"/></g></g><g><g><path d="m151.62 29.348c-6.367-5.929-16.39-5.474-22.542.678-.595.595-1.56.595-2.155 0-6.152-6.152-16.175-6.608-22.542-.678-6.684 6.225-6.824 16.694-.421 23.097l20.725 20.726c1.831 1.831 4.799 1.831 6.63 0l20.725-20.726c6.404-6.403 6.264-16.872-.42-23.097z" fill="#fc657e"/></g></g><g><g><g><path d="m153.324 27.519c-6.988-6.51-18.152-6.402-25.324.084-7.173-6.487-18.336-6.593-25.324-.084-3.723 3.468-5.823 8.174-5.914 13.25-.09 5.079 1.838 9.854 5.429 13.444l20.725 20.726c1.357 1.357 3.163 2.105 5.083 2.105s3.726-.747 5.083-2.105l20.725-20.726c3.591-3.591 5.519-8.365 5.429-13.444-.089-5.077-2.189-9.783-5.912-13.25zm-3.051 23.159-20.725 20.726c-.827.826-2.268.826-3.095 0l-20.726-20.726c-2.623-2.623-4.031-6.11-3.965-9.82.065-3.708 1.601-7.146 4.322-9.681 2.519-2.346 5.787-3.506 9.087-3.506 3.604 0 7.244 1.385 9.983 4.124 1.569 1.567 4.121 1.566 5.69-.001 5.247-5.246 13.802-5.521 19.07-.617 2.722 2.535 4.257 5.973 4.322 9.681.068 3.709-1.34 7.197-3.963 9.82z"/></g></g></g><g><g><path d="m98.444 15.882c-4.498-.837-8.043-4.31-8.898-8.716-.043-.221-.352-.221-.395 0-.855 4.406-4.4 7.879-8.898 8.716-.226.042-.226.345 0 .387 4.498.838 8.043 4.311 8.898 8.717.043.221.352.221.395 0 .855-4.406 4.4-7.879 8.898-8.717.226-.042.226-.344 0-.387z" fill="#f5c84c"/></g></g><g><g><path d="m181.891 43.951c-2.892-.539-5.172-2.772-5.722-5.605-.028-.142-.226-.142-.254 0-.55 2.833-2.829 5.067-5.722 5.605-.145.027-.145.222 0 .249 2.892.539 5.172 2.772 5.722 5.605.028.142.226.142.254 0 .55-2.833 2.829-5.067 5.722-5.605.145-.027.145-.221 0-.249z" fill="#70d6f9"/></g></g><g><g><path d="m17.155 72.302h-2.329v-2.33c0-1.744-1.413-3.157-3.157-3.157s-3.157 1.413-3.157 3.157v2.33h-2.33c-1.744 0-3.157 1.413-3.157 3.157s1.413 3.157 3.157 3.157h2.33v2.33c0 1.744 1.413 3.157 3.157 3.157s3.157-1.414 3.157-3.157v-2.33h2.329c1.744 0 3.157-1.413 3.157-3.157.001-1.744-1.413-3.157-3.157-3.157z" fill="#fc657e"/></g></g><g><g><circle cx="110.461" cy="3.377" fill="#87d147" r="3.377"/></g></g><g><g><path d="m3.377 99c-1.865 0-3.377 1.512-3.377 3.377s1.512 3.377 3.377 3.377 3.377-1.512 3.377-3.377-1.512-3.377-3.377-3.377z" fill="#f5c84c"/></g></g></g></g></svg>