<svg xmlns="http://www.w3.org/2000/svg" version="1.1" xmlns:xlink="http://www.w3.org/1999/xlink" width="512" height="512" x="0" y="0" viewBox="0 0 512 512" style="enable-background:new 0 0 512 512" xml:space="preserve" class=""><g><path fill="#acd980" d="M248.873 286.622h-49.997v184.17L284.711 512l98.511-175.962z" opacity="1" data-original="#acd980"></path><path fill="#8cc951" d="M410.887 286.622H248.873c8.096 28.52 27.081 44.876 70.681 45.803 0 0 22.875 15.352 53.703 7.092a71.47 71.47 0 0 0 9.965-3.479z" opacity="1" data-original="#8cc951"></path><path fill="#986969" d="m395.601 324.805-48.948 16.665c-29.067 35.662-51.496 89.344-59.71 149.926l62.544 5.151z" opacity="1" data-original="#9d6c6c" class=""></path><path fill="#785252" d="M433.005 270.016h-65.081v49.599c-7.389 6.206-14.506 13.554-21.272 21.855 7.736.909 16.762.684 26.605-1.954a71.427 71.427 0 0 0 12.042-4.409c-4.963 8.088-8.84 17.178-11.487 27.057l-34.628 129.232h-52.242A373.995 373.995 0 0 0 284.71 512h31.199l41.207-10.302L491.37 325.504c-12.277-18.934-30.953-36.317-58.365-55.488z" opacity="1" data-original="#785252" class=""></path><path fill="#ebae9d" d="M445.598 198.103c20.388-7.415 25.09-33.965 17.878-60.883-7.509-28.024-15.993-36.897-25.344-38.864-9.35-1.968-17.487 6.624-15.014 15.853l-205.697 55.116c-2.473-9.23-13.815-2.3-20.929 4.079s-10.025 8.004-2.516 36.028c7.213 26.917 24.56 47.559 45.924 43.787z" opacity="1" data-original="#ebae9d" class=""></path><path fill="#ffcdbe" d="M437.613 194.658 383.98 27.891H239.754c-8.066 6.951-15.731 14.847-22.205 23.175l-6.459 94.631 12.522 46.732 98.154 115.089c9.564 3.604 25.113 7.072 43.492 2.147 30.828-8.26 42.962-32.993 42.962-32.993 37.9-22.97 37.266-52.633 29.393-82.014z" opacity="1" data-original="#ffcdbe" class=""></path><path fill="#f7f9fa" d="M231.328 101.904c-4.601-16.99-12.151-44.769-13.778-50.838-13.604 17.502-21.922 36.923-17.463 53.561l11.005 41.069 17.872-28.188a19.58 19.58 0 0 0 2.364-15.604z" opacity="1" data-original="#f7f9fa"></path><path fill="#ebae9d" d="m393.571 68.738 33.74 125.92c7.873 29.381 16.142 49.094-21.757 72.062 0 0-12.135 24.733-42.962 32.993-18.379 4.925-33.928 1.457-43.492-2.147 2.426-18.946-4.081-53.528-40.114-86.11-14.181-12.823-43.863-19.028-55.374-19.028l19.535 72.907c7.873 29.381 26.768 46.246 71.074 47.188 0 0 22.875 15.352 53.703 7.092s42.963-32.993 42.963-32.993c37.899-22.969 45.83-47.022 37.957-76.403L416.787 90.58z" opacity="1" data-original="#ebae9d" class=""></path><path fill="#d79b8c" d="M325.223 271.688c9.069 0 18.896-1.321 28.945-3.976 21.501-5.68 39.171-16.153 48.48-28.735a7.727 7.727 0 0 0-12.423-9.191c-13.874 18.752-54.02 30.753-78.766 25.041 2.553 5.737 4.407 11.268 5.688 16.483 2.614.245 5.306.378 8.076.378z" opacity="1" data-original="#d79b8c" class=""></path><path fill="#c38778" d="M293.974 256.262a7.727 7.727 0 0 0 3.838 10.231c5.582 2.537 12.136 4.138 19.335 4.816-1.28-5.215-3.134-10.746-5.688-16.483-2.604-.601-5.04-1.396-7.254-2.402a7.73 7.73 0 0 0-10.231 3.838z" opacity="1" data-original="#c38778" class=""></path><path fill="#d79b8c" d="M402.883 264.498a7.73 7.73 0 0 1-7.458-5.729l-10.886-40.628a7.727 7.727 0 0 1 14.927-3.999l10.886 40.628a7.727 7.727 0 0 1-7.469 9.728z" opacity="1" data-original="#d79b8c" class=""></path><path fill="#ebae9d" d="M313.506 218.512c3.447 12.864 22.461 12.611 30.155 10.549s24.287-11.349 20.84-24.213c-2.444-9.119-14.32-22.34-24.944-34.133-6.826-7.577-19.392-4.21-21.515 5.765-3.304 15.525-6.979 32.913-4.536 42.032z" opacity="1" data-original="#ebae9d" class=""></path><path fill="#f7f9fa" d="M239.754 27.891c6.714 6.86 12.718 12.518 18.2 17.153 0 0 11.945 10.33 33.351 10.33 21.407 0 81.62-9.168 81.62-9.168l4.439 16.566a19.577 19.577 0 0 0 9.851 12.331l13.638 7.137-20.297-62.072-21.61-10.216c-26.611-9.7-57.897-12.467-76.035-7.607-12.443 3.335-28.453 12.875-43.157 25.546z" opacity="1" data-original="#f7f9fa"></path><g fill="#dce6eb"><path d="m416.787 90.58-11.004-41.07c-3.17-11.83-12.64-21.649-25.226-29.341l1.999 7.459-58.813 15.759c-19.832 5.314-41.854 9.589-65.788 1.657 28.729 24.293 43.095 20.422 69.788 13.269l58.813-15.759 10.036 37.456z" fill="#dce6eb" opacity="1" data-original="#dce6eb" class=""></path><path d="m358.945 9.959-53.506 14.337a7.727 7.727 0 0 0 3.999 14.927l71.116-19.055c-6.513-3.981-13.865-7.386-21.609-10.209zM243.805 170.24a7.69 7.69 0 0 1-4.118-1.195 7.725 7.725 0 0 1-2.407-10.658c17.446-27.626 35.095-35.298 48.522-38.896a7.727 7.727 0 0 1 4 14.926c-16.122 4.32-27.923 13.956-39.457 32.22a7.72 7.72 0 0 1-6.54 3.603zM396.851 129.232a7.697 7.697 0 0 1-3.589-.889c-19.121-10.051-34.158-12.496-50.28-8.176a7.727 7.727 0 0 1-4-14.926c25.562-6.847 46.278 1.439 61.47 9.424a7.727 7.727 0 0 1-3.601 14.567z" fill="#dce6eb" opacity="1" data-original="#dce6eb" class=""></path></g><path fill="#f7f9fa" d="M314.866 167.977c6.234 23.264-6.932 36.06-37.076 44.137s-47.944 3.579-54.178-19.686c-4.101-15.304 2.614-26.371 39.209-36.176 36.596-9.806 47.945-3.579 52.045 11.725zM377.265 125.587c-36.595 9.806-43.31 20.873-39.209 36.176 6.234 23.264 24.034 27.763 54.178 19.686 12.247-3.282 21.692-7.342 28.172-12.567v-26.785l-12.855-21.191c-7.442-.26-17.258 1.19-30.286 4.681z" opacity="1" data-original="#f7f9fa"></path><path fill="#dce6eb" d="M429.309 137.312c-2.641-9.855-8.3-15.937-21.76-16.406l12.855 47.976c9.469-7.636 12.606-17.758 8.905-31.57z" opacity="1" data-original="#dce6eb" class=""></path><path fill="#909ba6" d="M125.332 342.17c-4.944-21.159-23.914-36.923-46.579-36.923C52.327 305.247 0 357.574 0 383.999a47.628 47.628 0 0 0 4.965 21.225c5.03 8.024 21.547 17.35 30.52 17.35z" opacity="1" data-original="#909ba6" class=""></path><path fill="#7e8b96" d="M30.334 412.273c-8.973 0-17.722-2.594-25.369-7.048 7.823 15.773 24.082 26.622 42.882 26.622 26.425 0 78.752-52.327 78.752-78.752 0-3.76-.448-7.413-1.268-10.924-26.734 15.404-68.835 41.991-94.997 70.102z" opacity="1" data-original="#7e8b96" class=""></path><path fill="#ffd064" d="M254.496 223.585c-15.289 0-32.052-5.663-38.348-29.156-7.417-27.682 18.421-38.605 44.673-45.64 19.197-5.144 32.641-6.264 42.313-3.524 9.935 2.813 16.214 9.589 19.195 20.712v.001c10.55 39.375-29.409 50.081-42.54 53.6-5.296 1.418-14.958 4.007-25.293 4.007zm36.871-64.351c-6.046 0-14.529 1.261-26.546 4.481-38.164 10.226-35.611 19.756-33.746 26.714 3.17 11.828 9.499 23.658 44.715 14.222 35.215-9.436 34.782-22.846 31.613-34.675v.001c-1.277-4.768-2.881-10.743-16.036-10.743zM368.476 192.9c-5.497.001-10.367-.741-14.76-2.217-11.603-3.898-19.383-12.955-23.125-26.92-7.417-27.682 18.421-38.605 44.673-45.639 19.196-5.143 32.641-6.264 42.313-3.524 9.935 2.813 16.214 9.589 19.195 20.712 10.55 39.375-29.409 50.082-42.54 53.601-9.94 2.663-18.408 3.987-25.756 3.987zm37.334-64.331c-6.046 0-14.529 1.261-26.546 4.481-38.163 10.226-35.61 19.756-33.745 26.714 3.131 11.685 8.987 14.883 13.12 16.271 7.149 2.402 17.483 1.731 31.595-2.049 35.214-9.436 34.782-22.846 31.613-34.675-1.278-4.767-2.882-10.742-16.037-10.742z" opacity="1" data-original="#ffd064"></path><path fill="#ffe07d" d="m218.613 449.983-101.4-33.199-49.768-10.94c-27.458 19.3-50.051 48.883-62.019 85.552l261.784 10.302c.001 0-14.273-34.206-48.597-51.715z" opacity="1" data-original="#ffe07d" class=""></path><path fill="#ffd064" d="m221.55 439.72-104.336-22.936v34.631c5.177 6.974 14.481 16.227 29.218 20.176 25.113 6.729 44.282-7.768 44.282-7.768 10.221-.549 19.51-1.715 27.899-3.538 9.522 6.914 16.059 13.245 20.477 18.364 4.311 4.995.722 12.747-5.876 12.747H5.427l-.161.495C2.054 501.829 9.56 512 20.005 512h264.706s-15.246-48.277-63.161-72.28z" opacity="1" data-original="#ffd064"></path><path fill="#c38778" d="M255.84 398.734c21.364 3.772 38.711-16.87 45.924-43.787 7.509-28.024 4.598-39.95-2.516-46.329s-18.456-3.007-20.929 6.223L72.622 259.724c2.473-9.23-5.663-17.821-15.014-15.853-9.35 1.968-17.835 10.841-25.344 38.864-7.213 26.917-2.51 53.467 17.878 60.883z" opacity="1" data-original="#c38778" class=""></path><path fill="#d79b8c" d="M164.959 442.189c45.068-2.42 72.46-16.523 81.028-48.502l25.37-133.68-61.789-99.038-128.76 68.202-31.246 116.611c-8.569 31.979 8.101 57.889 45.921 82.518 0 0 1.602 3.782 5.247 8.692 3.45 1.907 15.575 11.793 19.947 12.965 25.114 6.729 44.282-7.768 44.282-7.768z" opacity="1" data-original="#d79b8c" class=""></path><path fill="#c38778" d="m271.357 260.007-33.611 125.439c-8.569 31.979-35.96 46.083-81.028 48.502 0 0-19.169 14.497-44.282 7.768a51.813 51.813 0 0 1-11.705-4.723c5.177 6.974 14.481 16.227 29.218 20.176 25.113 6.729 44.282-7.768 44.282-7.768 45.068-2.42 72.46-16.523 81.028-48.502l31.246-116.611z" opacity="1" data-original="#c38778" class=""></path><path fill="#986969" d="M161.082 412.871c-6.139 0-12.406-.84-18.606-2.554-20.165-5.575-36.2-19.52-42.894-37.301a7.727 7.727 0 0 1 14.462-5.444c4.96 13.176 17.128 23.588 32.55 27.852 15.475 4.28 31.29 1.611 42.302-7.135a7.727 7.727 0 0 1 9.612 12.1c-10.307 8.187-23.539 12.482-37.426 12.482z" opacity="1" data-original="#9d6c6c" class=""></path><path fill="#986969" d="M96.137 378.817c-4.487 0-8.925-.523-13.177-1.662a7.727 7.727 0 0 1 4-14.926c14.29 3.831 40.494-3.898 48.748-17.353a7.725 7.725 0 0 1 10.626-2.545 7.726 7.726 0 0 1 2.545 10.626c-8.445 13.764-31.158 25.86-52.742 25.86zM212.654 411.634a7.76 7.76 0 0 1-2.005-.265c-24.703-6.619-44.468-34.417-44.988-53.915a7.727 7.727 0 0 1 7.518-7.93c4.217-.097 7.816 3.251 7.93 7.518.421 15.779 19.252 35.573 33.54 39.401a7.727 7.727 0 0 1-1.995 15.191z" opacity="1" data-original="#9d6c6c" class=""></path><path fill="#7e8b96" d="M115.129 272.586a7.728 7.728 0 0 1-2.203-15.134c14.58-4.343 27.16-4.65 40.791-.999a7.727 7.727 0 0 1-4 14.926c-10.854-2.909-20.539-2.645-32.379.882a7.67 7.67 0 0 1-2.209.325zM238.939 305.758a7.704 7.704 0 0 1-5.614-2.416c-8.492-8.975-16.746-14.046-27.602-16.954a7.727 7.727 0 0 1-5.463-9.463c1.105-4.122 5.346-6.562 9.463-5.463 13.629 3.652 24.37 10.209 34.826 21.26a7.726 7.726 0 0 1-5.61 13.036z" opacity="1" data-original="#7e8b96" class=""></path><path fill="#785252" d="M129.32 312.806a7.699 7.699 0 0 1-5.087-1.913c-2.051-1.795-6.866-3.083-9.537-2.556a7.726 7.726 0 0 1-3.004-15.158c7.451-1.479 17.006 1.084 22.721 6.088a7.727 7.727 0 0 1-5.093 13.539zM222.662 337.817a7.7 7.7 0 0 1-5.088-1.914c-2.05-1.795-6.865-3.081-9.536-2.555a7.727 7.727 0 0 1-3.004-15.158c7.452-1.479 17.007 1.084 22.721 6.089a7.727 7.727 0 0 1-5.093 13.538z" opacity="1" data-original="#785252" class=""></path><path fill="#c38778" d="M135.076 346.983c-3.077 11.484 11.736 19.776 18.606 21.617 6.869 1.841 23.844 2.066 26.921-9.418 1.548-5.779.585-16.171-1.16-26.672-2.396-14.426-20.738-19.34-30.026-8.046-6.762 8.222-12.793 16.74-14.341 22.519z" opacity="1" data-original="#c38778" class=""></path><path fill="#909ba6" d="M243.539 175.858c-9.774-6.276-21.047-11.426-33.971-14.889-75.045-20.108-130.303 36.837-136.872 61.352-2.903 10.835-3.799 24.461-3.986 35.164 7.799 12.532 26.993 8.885 35.205 2.523 18.27-14.154 38.129-51.847 58.437-51.847 15.103 0 16.625 8.214 16.625 8.214l29.381 7.873c42.272 11.327 16.215 70.229 46.775 96.323.11-.169 27.386-26.268 33.023-47.305 4.922-18.371-12.038-71.5-44.617-97.408z" opacity="1" data-original="#909ba6" class=""></path><path fill="#7e8b96" d="M160.434 197.831c-41.511 0-49.317 71.906-91.723 59.653-.177 10.144.284 17.664.284 17.664 59.544 15.955 61.065-71.881 109.983-58.773-.001 0-.001-18.544-18.544-18.544zM243.539 175.858c27.856 31.382 39.236 79.038 34.314 97.407-5.637 21.037-22.611 47.136-22.721 47.305 4.805 4.102 10.997 7.401 19.087 9.568 0 0 17.552-26.496 23.207-47.601 5.439-20.293-6.907-76.512-53.887-106.679z" opacity="1" data-original="#7e8b96" class=""></path><path fill="#cce8b0" d="M501.698 388.992c0-32.97-10.327-63.488-36.931-72.138-33.165-4.703-61.398 14.607-71.054 50.643l-25.843 96.448 15.416 27.452 118.412 10.302V388.992z" opacity="1" data-original="#cce8b0" class=""></path><path fill="#acd980" d="M491.37 325.505c-9.041-4.591-17.988-7.429-26.602-8.65 14.313 17.414 26.629 39.168 26.629 72.138v86.951c0 8.534-6.918 15.453-15.453 15.453h-92.657L394.856 512h101.691c8.534 0 15.453-6.918 15.453-15.453v-86.951c0-34.682-5.384-60.582-20.63-84.091z" opacity="1" data-original="#acd980"></path><path fill="#d79b8c" d="M400.947 408.53c-.399.041-.8.094-1.204.167-49.959 9.067-74.922 47.112-81.809 82.699l71.112 10.302z" opacity="1" data-original="#d79b8c" class=""></path><path fill="#c38778" d="m400.947 408.53-19.135 71.413a15.452 15.452 0 0 1-14.926 11.453h-48.953c-1.364 7.045-2.023 13.995-2.023 20.604h78.946l22.53-84.085c2.823-10.535-5.84-20.485-16.439-19.385z" opacity="1" data-original="#c38778" class=""></path></g></svg>