<svg height="512" viewBox="0 0 256 256" width="512" xmlns="http://www.w3.org/2000/svg"><g id="Layer_34"><g><g><g><path d="m232.356 155.321c5.478-8.59 2.891-16.954.474-21.678-2.12 3.362-5.856 5.603-10.125 5.603-.653 0-1.288-.067-1.913-.167-.673 10.034-6.56 18.699-14.965 23.28v8.697c0 2.784 1.461 5.332 3.801 6.774.938.578-.252-.1 7.736 3.873 1.075.53 2.494 1.091 3.588 1.434.217.068.437.127.656.189 4.22-1.544 7.944-3.997 10.355-7.816 4.422-7.002 1.841-13.786.214-16.822-.57-1.067-.471-2.346.179-3.367z" fill="#fce4be"/></g></g><g><g><path d="m163.583 139.079c-.624.1-1.26.167-1.912.167-4.268 0-8.005-2.24-10.125-5.603-2.416 4.724-5.003 13.088.474 21.678.651 1.021.75 2.3.178 3.366-1.627 3.037-4.208 9.821.214 16.822 2.412 3.819 6.135 6.271 10.356 7.816.219-.062.439-.121.656-.189 1.094-.343 2.513-.904 3.588-1.434 8.507-4.231 6.868-3.339 7.736-3.873 2.34-1.441 3.801-3.99 3.801-6.774v-8.697c-8.406-4.58-14.293-13.245-14.966-23.279z" fill="#fce4be"/></g></g><g><g><path d="m222.706 115.3c-.626 0-1.24.053-1.84.146v21.71c0 .647-.03 1.287-.072 1.923.624.1 1.26.167 1.913.167 6.613 0 11.973-5.36 11.973-11.973-.001-6.613-5.362-11.973-11.974-11.973z" fill="#f9d0b4"/></g></g><g><g><path d="m163.51 137.156v-17.078c-1.969-.561-3.991-1.287-6.065-2.203-1.337-.591-2.899-.319-3.966.681-2.326 2.181-3.782 5.276-3.782 8.717 0 6.612 5.361 11.973 11.973 11.973.653 0 1.288-.066 1.912-.167-.042-.636-.072-1.276-.072-1.923z" fill="#f9d0b4"/></g></g><g><g><path d="m192.188 72.81c-21.448 0-38.996 17.549-38.996 38.996v7.047c.097-.098.187-.203.288-.298 1.066-1 2.629-1.272 3.966-.681 2.074.916 4.096 1.642 6.065 2.203 22.539 6.42 38.027-9.046 42.395-14.144.702-.82 1.934-.879 2.733-.154 4.039 3.67 7.562 5.35 10.464 6.023 1.026.238 1.764 1.131 1.764 2.184v1.459c.6-.093 1.214-.146 1.84-.146 3.313 0 6.311 1.346 8.478 3.52v-7.013c-.001-21.447-17.549-38.996-38.997-38.996z" fill="#fce4be"/></g></g><g><g><path d="m199.568 197.619-3.059-2.845c-1.071-.997-1.132-2.674-.135-3.745l12.66-13.608c-1.989-1.486-3.206-3.827-3.206-6.365v-8.697c-4.063 2.214-8.711 3.474-13.641 3.474-4.929 0-9.578-1.26-13.64-3.474v8.697c0 2.539-1.218 4.879-3.207 6.365l12.66 13.608c.997 1.071.936 2.748-.135 3.745l-3.059 2.845c-2.4 2.233-5.491 3.047-8.405 2.647l5.126 53.234h21.318l5.126-53.234c-2.911.4-6.002-.414-8.403-2.647z" fill="#dae6f1"/></g></g><g><g><path d="m174.269 178.108c-.058.03-.11.069-.169.098l-7.09 3.496c-1.585.781-3.248 1.393-4.961 1.824-.101.025-14.712 3.714-14.805 3.737l-5.7 1.439c-4.99 1.256-8.584 5.611-8.87 10.75l-1.795 49.335c-.094 2.574 1.968 4.713 4.544 4.713h46.106z" fill="#3caadc"/></g></g><g><g><path d="m251.702 199.452c-.286-5.139-3.88-9.493-8.87-10.75l-5.7-1.439c-.093-.023-14.704-3.712-14.805-3.737-1.714-.431-3.376-1.043-4.961-1.824l-7.09-3.496c-.059-.029-.11-.068-.168-.098l-7.26 75.392h46.106c2.576 0 4.638-2.138 4.544-4.713z" fill="#3caadc"/></g></g><g><g><path d="m219.102 111.803c-2.902-.672-6.425-2.353-10.464-6.023-.799-.726-2.031-.666-2.733.154-4.368 5.098-19.855 20.564-42.395 14.144v17.078c0 15.773 12.905 28.677 28.678 28.677 15.772 0 28.677-12.905 28.677-28.677v-23.168c0-1.054-.737-1.947-1.763-2.185z" fill="#f9d0b4"/></g></g><g><g><path d="m174.269 178.108c-.058.03-.11.069-.169.098l-7.09 3.496c-1.585.781-3.248 1.393-4.961 1.824-.014.004-.317.08-.814.205l-1.515 27.783c-.071 1.3.366 2.576 1.218 3.559l6.512 7.514c1.547 1.785 1.64 4.407.222 6.297l-3.277 4.369c-.977 1.303-1.261 2.999-.762 4.549l5.055 15.697h12.841z" fill="#70d6f9"/></g></g><g><g><path d="m223.438 215.074c.852-.984 1.289-2.26 1.219-3.559l-1.516-27.783c-.497-.126-.8-.202-.814-.205-1.714-.431-3.376-1.043-4.961-1.824l-7.09-3.496c-.059-.029-.11-.068-.168-.098l-7.26 75.392h12.841l5.055-15.697c.499-1.55.215-3.246-.762-4.549l-3.277-4.369c-1.417-1.89-1.325-4.512.222-6.297z" fill="#70d6f9"/></g></g><g><g><path d="m188.001 191.029-12.66-13.608c-.338.253-.691.487-1.072.687l2.134 22.158c2.913.4 6.005-.414 8.405-2.647l3.059-2.846c1.071-.996 1.131-2.673.134-3.744z" fill="#edf4fc"/></g></g><g><g><path d="m209.035 177.421-12.66 13.608c-.997 1.071-.936 2.748.135 3.745l3.059 2.846c2.4 2.233 5.491 3.047 8.405 2.647l2.134-22.158c-.382-.201-.735-.435-1.073-.688z" fill="#edf4fc"/></g></g><g><g><path d="m209.035 177.421c-1.989-1.486-3.206-3.827-3.206-6.365v-8.697c-4.063 2.214-8.711 3.475-13.641 3.475-4.929 0-9.578-1.26-13.64-3.475v8.697c0 2.539-1.218 4.879-3.206 6.365l12.66 13.608c.606.651.816 1.526.65 2.336h7.073c-.165-.81.044-1.685.65-2.336z" fill="#f9d0b4"/></g></g><g><g><g><g><path d="m165.3 33.906h-10.115c-.561-1.885-1.308-3.691-2.229-5.39l7.15-7.15c.863-.863.863-2.262 0-3.126l-8.336-8.336c-.863-.863-2.263-.863-3.126 0l-7.15 7.15c-1.699-.921-3.504-1.667-5.39-2.229v-10.115c0-1.221-.99-2.21-2.21-2.21h-11.789c-1.221 0-2.21.99-2.21 2.21v10.115c-1.885.561-3.691 1.308-5.39 2.229l-7.15-7.15c-.863-.863-2.263-.863-3.126 0l-8.336 8.336c-.863.863-.863 2.263 0 3.126l7.15 7.15c-.921 1.699-1.667 3.504-2.229 5.39h-10.114c-1.221 0-2.21.99-2.21 2.21v11.789c0 1.221.99 2.21 2.21 2.21h10.115c.561 1.886 1.308 3.691 2.229 5.39l-7.15 7.15c-.863.863-.863 2.262 0 3.125l8.336 8.336c.863.863 2.263.863 3.126 0l7.15-7.15c1.699.921 3.504 1.667 5.39 2.229v10.115c0 1.221.99 2.21 2.21 2.21h11.789c1.221 0 2.21-.99 2.21-2.21v-10.115c1.885-.561 3.691-1.308 5.39-2.229l7.15 7.15c.863.863 2.262.863 3.126 0l8.336-8.336c.863-.863.863-2.262 0-3.125l-7.15-7.15c.921-1.699 1.667-3.504 2.229-5.39h10.114c1.221 0 2.21-.99 2.21-2.21v-11.789c0-1.221-.989-2.21-2.21-2.21zm-37.3 23.047c-8.253 0-14.943-6.69-14.943-14.943s6.69-14.943 14.943-14.943 14.943 6.69 14.943 14.943-6.69 14.943-14.943 14.943z" fill="#f5c84c"/></g></g></g></g><g><g><path d="m92.917 102.878c-2.014-2.112-5.289-2.307-7.585-.505-3.63 2.849-9.911 6.371-18.783 6.371-8.893 0-15.207-3.539-18.853-6.392-2.294-1.795-5.562-1.594-7.572.514l-.01.011c-2.825 2.962-4.4 6.898-4.4 10.99v25.85c0 16.941 13.861 30.802 30.802 30.802 16.941 0 30.802-13.861 30.802-30.802v-25.85c-.001-4.091-1.577-8.027-4.401-10.989z" fill="#f9d0b4"/></g></g><g><g><path d="m99.293 116.244c-.673 0-1.332.057-1.977.157v23.318c0 .695-.032 1.382-.078 2.066.67.108 1.353.179 2.054.179 7.102 0 12.86-5.758 12.86-12.86.001-7.102-5.756-12.86-12.859-12.86z" fill="#f9d0b4"/></g></g><g><g><path d="m35.713 139.719v-23.318c-.645-.1-1.304-.157-1.977-.157-7.102 0-12.86 5.758-12.86 12.86s5.758 12.86 12.86 12.86c.701 0 1.384-.071 2.054-.179v-.001c-.045-.684-.077-1.371-.077-2.065z" fill="#f9d0b4"/></g></g><g><g><path d="m97.202 89.97c-1.032 0-1.926-.795-1.94-1.827-.236-17.164-19.836-20.388-39.355-17.017-16.549 2.858-28.644 17.208-28.644 34.002v12.878c1.903-1.112 4.11-1.761 6.473-1.761.673 0 1.332.057 1.977.157v-2.532c0-4.093 1.576-8.028 4.4-10.99l.01-.011c2.01-2.108 5.278-2.309 7.572-.514 3.645 2.853 9.96 6.392 18.853 6.392 8.872 0 15.153-3.522 18.783-6.371 2.296-1.802 5.571-1.608 7.585.505 2.825 2.962 4.4 6.898 4.4 10.99v2.532c.645-.1 1.304-.157 1.977-.157 2.392 0 4.623.665 6.541 1.802v-10.573c.001-15.371-5.549-17.505-8.632-17.505z" fill="#5b5d60"/></g></g><g><g><path d="m81.816 200.496c-.832.952-2.278 1.05-3.23.218l-6.902-6.028c-.952-.832-1.05-2.278-.218-3.23l11.378-13.027c-1.36-1.81-2.139-4.039-2.139-6.39v-5.013c-4.254 2.227-9.08 3.495-14.19 3.495s-9.936-1.268-14.19-3.495v5.013c0 2.351-.779 4.58-2.139 6.39l11.378 13.027c.832.952.734 2.399-.218 3.23l-6.902 6.028c-.952.832-2.399.734-3.23-.218l-6.361-7.283 9.671 60.287h23.983l9.671-60.287z" fill="#dae6f1"/></g></g><g><g><path d="m43.103 182.305c-.224-1.394-1.644-2.255-2.983-1.808l-20.14 6.714c-6.825 2.275-11.698 8.318-12.476 15.47l-4.977 45.781c-.292 2.69 1.815 5.039 4.521 5.039h47.476z" fill="#3a70bf"/></g></g><g><g><path d="m130.503 248.461-4.977-45.781c-.778-7.152-5.651-13.195-12.476-15.47l-20.14-6.714c-1.339-.447-2.759.414-2.983 1.808l-11.42 71.196h47.476c2.705 0 4.812-2.349 4.52-5.039z" fill="#3a70bf"/></g></g><g><g><path d="m43.103 182.305c-.224-1.394-1.644-2.255-2.983-1.808l-6.751 2.25v31.353c0 2.13 1.204 4.078 3.109 5.031l3.739 1.87c1.543.771 2.127 2.677 1.281 4.181l-4.426 7.868c-.814 1.446-.947 3.179-.364 4.733l5.894 15.718h11.92z" fill="#5290db"/></g></g><g><g><path d="m92.91 180.497c-1.339-.447-2.759.415-2.983 1.808l-11.42 71.195h11.919l5.894-15.718c.583-1.554.45-3.286-.364-4.733l-4.426-7.868c-.846-1.504-.262-3.41 1.281-4.181l3.739-1.87c1.906-.953 3.109-2.9 3.109-5.031v-31.353z" fill="#5290db"/></g></g><g><g><path d="m82.844 178.428c-1.36-1.81-2.139-4.039-2.139-6.39v-5.013c-4.254 2.227-9.08 3.495-14.19 3.495-5.11 0-9.936-1.268-14.19-3.495v5.013c0 2.351-.779 4.58-2.139 6.39l11.378 13.027c.476.544.637 1.249.519 1.909h8.863c-.118-.66.044-1.365.519-1.909z" fill="#f9d0b4"/></g></g><g><g><path d="m87.533 176.54c-.952-.832-2.399-.734-3.23.218l-12.837 14.698c-.832.952-.734 2.399.218 3.23l6.902 6.028c.952.832 2.399.734 3.23-.218l6.361-7.283 1.75-10.908c.17-1.058 1.03-1.806 2.02-1.911z" fill="#edf4fc"/></g></g><g><g><path d="m61.564 191.456-12.837-14.698c-.832-.952-2.278-1.05-3.23-.218l-4.414 3.855c.99.105 1.85.852 2.02 1.911l1.75 10.908 6.361 7.283c.832.952 2.278 1.05 3.23.218l6.902-6.028c.953-.833 1.05-2.279.218-3.231z" fill="#edf4fc"/></g></g><g><g><path d="m72.164 206.278h-11.298l-4.636 47.222h20.57z" fill="#fc657e"/></g></g><g><g><path d="m71.684 194.686c-.408-.356-.649-.827-.737-1.321h-8.863c-.088.495-.329.965-.737 1.321l-4.057 3.544 3.577 8.048h11.299l3.577-8.048z" fill="#f98fa6"/></g></g><g><g><path d="m234.465 156.666c6.14-9.63 3.13-19.025.789-23.769-.611-1.237-2.11-1.747-3.349-1.135-1.238.611-1.746 2.11-1.136 3.348 2.291 4.642 4.06 11.683-.521 18.868-1.148 1.803-1.254 4.06-.272 5.891 1.527 2.85 3.543 8.499-.124 14.306-1.846 2.921-4.803 5.171-8.79 6.687-1.29.491-1.938 1.935-1.448 3.225.38.999 1.329 1.612 2.337 1.612.296 0 .596-.053.889-.164 5.021-1.909 8.804-4.833 11.239-8.691 5.21-8.248 1.948-16.271.305-19.337-.155-.286-.06-.622.081-.841z"/></g></g><g><g><path d="m163.294 180.854c-3.978-1.516-6.928-3.763-8.77-6.679-3.667-5.808-1.651-11.456-.123-14.307.98-1.831.875-4.087-.273-5.891-4.617-7.241-2.795-14.332-.453-19.005.618-1.234.119-2.737-1.115-3.355s-2.736-.119-3.355 1.115c-2.392 4.773-5.479 14.229.707 23.933.141.22.235.556.083.841-1.645 3.067-4.906 11.09.303 19.338 2.432 3.851 6.205 6.772 11.216 8.682.293.112.594.165.891.165 1.007 0 1.956-.613 2.336-1.61.49-1.291-.157-2.735-1.447-3.227z"/></g></g><g><g><path d="m222.706 112.8c-.448 0-.892.022-1.328.063-1.375.131-2.383 1.351-2.253 2.726.132 1.375 1.355 2.389 2.726 2.252.282-.027.567-.041.855-.041 5.224 0 9.473 4.25 9.473 9.473s-4.249 9.473-9.473 9.473c-.317 0-.647-.021-1.007-.063-1.358-.167-2.614.816-2.777 2.187s.816 2.615 2.188 2.778c.557.066 1.079.099 1.597.099 7.98 0 14.473-6.493 14.473-14.473s-6.493-14.474-14.474-14.474z"/></g></g><g><g><path d="m156.435 120.161c2.117.935 4.268 1.716 6.392 2.32 1.332.381 2.711-.392 3.089-1.72s-.392-2.711-1.72-3.088c-1.903-.542-3.834-1.243-5.741-2.085-2.255-.996-4.879-.547-6.685 1.145-2.905 2.725-4.572 6.566-4.572 10.541 0 7.98 6.492 14.473 14.473 14.473.403 0 .802-.02 1.196-.057 1.374-.126 2.387-1.343 2.26-2.718-.126-1.375-1.344-2.389-2.719-2.26-.242.022-.488.035-.737.035-5.224 0-9.473-4.25-9.473-9.473 0-2.636 1.063-5.084 2.992-6.893.337-.319.829-.404 1.245-.22z"/></g></g><g><g><path d="m192.188 70.311c-22.881 0-41.496 18.615-41.496 41.496v6.919c0 1.381 1.119 2.5 2.5 2.5s2.5-1.119 2.5-2.5v-6.919c0-20.124 16.372-36.496 36.496-36.496 20.125 0 36.497 16.372 36.497 36.496v6.829c0 1.381 1.119 2.5 2.5 2.5s2.5-1.119 2.5-2.5v-6.829c0-22.881-18.616-41.496-41.497-41.496z"/></g></g><g><g><path d="m202.12 145.546c-1.058-.887-2.634-.749-3.522.309-1.403 1.674-3.8 2.674-6.41 2.674-2.609 0-5.006-1-6.409-2.674-.89-1.058-2.464-1.196-3.522-.309s-1.196 2.464-.31 3.522c2.343 2.793 6.171 4.461 10.241 4.461 4.071 0 7.899-1.667 10.242-4.461.886-1.058.748-2.635-.31-3.522z"/></g></g><g><g><circle cx="204.665" cy="130.587" r="3.716"/></g></g><g><g><path d="m179.711 126.872c-2.052 0-3.716 1.664-3.716 3.716s1.663 3.716 3.716 3.716 3.716-1.664 3.716-3.716-1.664-3.716-3.716-3.716z"/></g></g><g><g><path d="m178.548 160.313c-1.381 0-2.5 1.119-2.5 2.5v8.243c0 1.701-.823 3.332-2.203 4.362-1.106.827-1.333 2.393-.507 3.5.491.657 1.243 1.003 2.005 1.003.521 0 1.046-.162 1.494-.497 2.637-1.97 4.211-5.099 4.211-8.368v-8.243c0-1.381-1.119-2.5-2.5-2.5z"/></g></g><g><g><path d="m210.531 175.418c-1.38-1.031-2.203-2.662-2.203-4.362v-8.4c0-1.381-1.119-2.5-2.5-2.5s-2.5 1.119-2.5 2.5v8.4c0 3.27 1.574 6.398 4.211 8.368.449.335.974.497 1.494.497.762 0 1.514-.347 2.005-1.003.826-1.107.6-2.673-.507-3.5z"/></g></g><g><g><path d="m202.847 251h-21.317c-1.381 0-2.5 1.119-2.5 2.5s1.119 2.5 2.5 2.5h21.317c1.381 0 2.5-1.119 2.5-2.5s-1.119-2.5-2.5-2.5z"/></g></g><g><g><path d="m233.852 210.004c-1.381 0-2.5 1.119-2.5 2.5v39.452c0 1.381 1.119 2.5 2.5 2.5s2.5-1.119 2.5-2.5v-39.452c0-1.38-1.12-2.5-2.5-2.5z"/></g></g><g><g><path d="m150.524 210.004c-1.381 0-2.5 1.119-2.5 2.5v39.452c0 1.381 1.119 2.5 2.5 2.5s2.5-1.119 2.5-2.5v-39.452c0-1.38-1.119-2.5-2.5-2.5z"/></g></g><g><g><g><g><path d="m176.758 177.868c-.079-.826-.563-1.559-1.292-1.956s-1.605-.407-2.344-.026c-.04.021-.129.072-.197.112l-7.02 3.461c-1.424.702-2.927 1.254-4.467 1.642 0 0-.065.017-.066.017-1.061.268-14.655 3.7-14.739 3.721l-5.698 1.438c-6.084 1.531-10.407 6.77-10.759 13.083l-1.795 49.335c-.07 1.93.629 3.758 1.97 5.148 1.34 1.39 3.142 2.155 5.072 2.155h46.106c.705 0 1.377-.297 1.851-.819s.705-1.219.638-1.921zm-41.335 73.132c-.561 0-1.084-.222-1.474-.626s-.593-.935-.572-1.496l1.793-49.287c.228-4.069 3.034-7.47 6.986-8.465l5.704-1.439c.173-.044 13.679-3.453 14.735-3.72 0 0 .052-.013.063-.016 1.882-.473 3.718-1.148 5.457-2.006l4.014-1.979 6.648 69.034z"/></g></g></g></g><g><g><g><g><path d="m254.198 199.312c-.35-6.264-4.673-11.502-10.756-13.034l-5.692-1.437c-.098-.025-14.716-3.715-14.813-3.739-1.54-.388-3.042-.94-4.466-1.642l-7.016-3.46c-.067-.04-.155-.09-.201-.114-.737-.38-1.614-.371-2.344.026-.729.397-1.213 1.13-1.292 1.956l-7.26 75.392c-.067.702.164 1.399.638 1.921.474.521 1.146.819 1.851.819h46.105c1.932 0 3.733-.766 5.074-2.156 1.34-1.39 2.039-3.218 1.969-5.148zm-3.771 51.062c-.39.404-.913.626-1.475.626h-43.354l6.647-69.034 4.014 1.979c1.739.858 3.574 1.533 5.459 2.007.175.044 14.618 3.69 14.797 3.735.001 0 .003.001.005.001l5.7 1.439c3.951.995 6.758 4.396 6.983 8.416l1.795 49.335c.022.561-.182 1.092-.571 1.496z"/></g></g></g></g><g><g><g><g><path d="m219.666 109.367c-2.995-.694-6.14-2.523-9.348-5.438-.884-.803-2.07-1.216-3.255-1.146-1.192.075-2.278.615-3.057 1.523-.001 0-.001.001-.001.001-3.991 4.659-18.658 19.392-39.811 13.366-.751-.215-1.564-.064-2.19.409-.626.472-.994 1.211-.994 1.995v17.079c0 17.191 13.985 31.178 31.177 31.178s31.178-13.986 31.178-31.178v-23.168c0-2.216-1.521-4.116-3.699-4.621zm-1.301 27.789c0 14.435-11.743 26.178-26.178 26.178-14.434 0-26.177-11.743-26.177-26.178v-13.892c21.629 4.46 36.613-9.828 41.388-15.239 3.646 3.218 7.332 5.293 10.967 6.172z"/></g></g></g></g><g><g><path d="m192.188 204.584c-1.381 0-2.5 1.119-2.5 2.5v36.166c0 1.381 1.119 2.5 2.5 2.5s2.5-1.119 2.5-2.5v-36.166c0-1.38-1.12-2.5-2.5-2.5z"/></g></g><g><g><g><g><path d="m94.727 101.153c-2.903-3.042-7.604-3.362-10.938-.746-3.393 2.664-9.138 5.838-17.239 5.838-8.119 0-13.896-3.187-17.312-5.861-3.332-2.606-8.027-2.28-10.934.769-3.283 3.443-5.091 7.959-5.091 12.716v25.85c0 18.363 14.939 33.302 33.302 33.302s33.302-14.939 33.302-33.302v-25.85c-.001-4.758-1.808-9.274-5.09-12.716zm.089 38.566c0 15.605-12.696 28.302-28.302 28.302s-28.302-12.696-28.302-28.302v-25.85c0-3.466 1.317-6.757 3.721-9.277.605-.635 1.419-.959 2.244-.959.69 0 1.388.227 1.978.688 4.036 3.158 10.85 6.923 20.394 6.923 9.53 0 16.313-3.755 20.327-6.905 1.296-1.018 3.117-.906 4.231.264 2.392 2.508 3.709 5.799 3.709 9.265z"/></g></g></g></g><g><g><path d="m110.075 210.752c-1.381 0-2.5 1.119-2.5 2.5v39c0 1.381 1.119 2.5 2.5 2.5s2.5-1.119 2.5-2.5v-39c0-1.381-1.119-2.5-2.5-2.5z"/></g></g><g><g><path d="m22.955 210.752c-1.381 0-2.5 1.119-2.5 2.5v39c0 1.381 1.119 2.5 2.5 2.5s2.5-1.119 2.5-2.5v-39c0-1.381-1.119-2.5-2.5-2.5z"/></g></g><g><g><g><g><path d="m99.293 113.744c-.769 0-1.563.063-2.359.186-1.219.189-2.117 1.238-2.117 2.471v23.318c0 .568-.022 1.171-.071 1.898-.087 1.289.822 2.431 2.097 2.636.883.142 1.685.211 2.451.211 8.47 0 15.36-6.891 15.36-15.36s-6.891-15.36-15.361-15.36zm.523 25.707v-20.693c5.471.273 9.837 4.81 9.837 10.347s-4.366 10.072-9.837 10.346z"/></g></g></g></g><g><g><g><g><path d="m38.213 139.719v-23.318c0-1.232-.898-2.281-2.116-2.47-.796-.124-1.591-.187-2.36-.187-8.469 0-15.359 6.891-15.359 15.36s6.891 15.36 15.359 15.36c.77 0 1.572-.069 2.453-.212 1.274-.206 2.183-1.348 2.096-2.635-.05-.737-.073-1.34-.073-1.898zm-5-.268c-5.47-.273-9.836-4.81-9.836-10.347s4.366-10.073 9.836-10.347z"/></g></g></g></g><g><g><g><g><path d="m97.745 87.485c-.223-5.737-2.42-10.377-6.539-13.797-9.711-8.063-26.55-6.611-35.725-5.025-17.799 3.073-30.718 18.409-30.718 36.465v12.877c0 .896.479 1.723 1.256 2.168.777.446 1.733.441 2.507-.011 1.587-.928 3.389-1.419 5.21-1.419.512 0 1.048.043 1.593.127.721.112 1.455-.097 2.011-.572.554-.475.873-1.168.873-1.898v-2.532c0-3.466 1.317-6.757 3.721-9.277 1.112-1.167 2.928-1.283 4.222-.271 4.036 3.158 10.85 6.923 20.394 6.923 9.529 0 16.313-3.755 20.327-6.905 1.296-1.018 3.117-.905 4.231.263 2.392 2.508 3.709 5.799 3.709 9.266v2.532c0 .73.319 1.423.873 1.898.554.474 1.29.683 2.01.572.555-.086 1.075-.128 1.594-.128 1.842 0 3.663.502 5.267 1.453.394.233.834.35 1.275.35.427 0 .854-.109 1.237-.328.78-.445 1.263-1.274 1.263-2.172v-10.573c-.001-16.665-6.398-19.755-10.591-19.986zm5.59 26.806c-1.146-.315-2.327-.497-3.519-.538-.029-4.715-1.834-9.186-5.09-12.601-2.903-3.042-7.604-3.362-10.938-.746-3.393 2.664-9.138 5.838-17.239 5.838-8.119 0-13.896-3.187-17.312-5.861-3.332-2.606-8.027-2.28-10.934.769-3.256 3.415-5.062 7.886-5.091 12.6-1.167.04-2.324.215-3.449.519v-9.144c0-15.616 11.174-28.88 26.569-31.539 14.165-2.447 25.713-1.008 31.679 3.945 3.134 2.603 4.688 6.083 4.75 10.644.034 2.366 2.025 4.292 4.44 4.292 3.897 0 6.133 5.469 6.133 15.003v6.819z"/></g></g></g></g><g><g><path d="m78.507 251h-23.984c-1.381 0-2.5 1.119-2.5 2.5s1.119 2.5 2.5 2.5h23.983c1.381 0 2.5-1.119 2.5-2.5s-1.118-2.5-2.499-2.5z"/></g></g><g><g><path d="m52.324 165.031c-1.381 0-2.5 1.119-2.5 2.5v4.507c0 1.606-.473 3.165-1.367 4.507-.766 1.148-.455 2.701.693 3.466.427.284.908.42 1.385.42.808 0 1.601-.391 2.082-1.114 1.444-2.167 2.207-4.684 2.207-7.28v-4.507c0-1.38-1.119-2.499-2.5-2.499z"/></g></g><g><g><path d="m84.652 176.663c-.947-1.37-1.447-2.969-1.447-4.624v-4.601c0-1.381-1.119-2.5-2.5-2.5s-2.5 1.119-2.5 2.5v4.601c0 2.676.808 5.258 2.334 7.467.485.702 1.266 1.079 2.059 1.079.49 0 .986-.144 1.42-.443 1.135-.787 1.419-2.344.634-3.479z"/></g></g><g><g><g><g><path d="m56.992 253.104-11.42-71.195c-.224-1.39-1.042-2.605-2.245-3.335-1.205-.729-2.659-.892-3.997-.448 0 0 0 0-.001 0l-20.139 6.714c-7.729 2.576-13.291 9.473-14.171 17.571l-4.978 45.781c-.217 1.987.425 3.979 1.76 5.467 1.336 1.487 3.248 2.341 5.247 2.341h47.476c.732 0 1.428-.321 1.902-.878.475-.558.681-1.295.566-2.018zm-49.944-2.104c-.59 0-1.131-.242-1.524-.68s-.574-1.002-.511-1.588l4.977-45.782c.67-6.161 4.901-11.408 10.781-13.368l19.903-6.635 10.917 68.053z"/></g></g></g></g><g><g><g><g><path d="m132.988 248.191-4.978-45.781c-.88-8.098-6.442-14.995-14.17-17.571l-20.14-6.714c-1.337-.446-2.792-.281-3.996.448-1.204.73-2.022 1.946-2.246 3.336l-11.42 71.195c-.115.723.091 1.46.566 2.018s1.17.878 1.902.878h47.476c1.998 0 3.91-.853 5.245-2.34 1.336-1.488 1.977-3.481 1.761-5.469zm-5.482 2.129c-.394.438-.935.68-1.523.68h-44.544l10.916-68.052 19.903 6.634c5.88 1.96 10.111 7.208 10.781 13.368l4.978 45.781c.064.586-.118 1.151-.511 1.589z"/></g></g></g></g><g><g><g><path d="m76.914 145.938c-1.056-.886-2.634-.749-3.521.31-1.407 1.68-3.812 2.682-6.43 2.682s-5.022-1.002-6.43-2.682c-.885-1.058-2.463-1.197-3.521-.31-1.059.887-1.197 2.464-.311 3.522 2.347 2.799 6.183 4.47 10.262 4.47s7.915-1.671 10.262-4.47c.886-1.058.748-2.635-.311-3.522z"/></g></g><g><g><path d="m80.859 126.387c-2.286 0-4.138 1.853-4.138 4.138s1.853 4.138 4.138 4.138c2.286 0 4.138-1.853 4.138-4.138s-1.852-4.138-4.138-4.138z"/></g></g><g><g><circle cx="53.067" cy="130.526" r="4.138"/></g></g></g><g><g><path d="m215.906 39.1h-2.4v-2.3c0-1.8-1.4-3.2-3.2-3.2-1.7 0-3.2 1.4-3.2 3.1v2.4h-2.3c-1.8 0-3.2 1.4-3.2 3.2-.1 1.7 1.3 3.2 3.2 3.2h2.3v2.3c0 1.8 1.4 3.2 3.2 3.2 1.7 0 3.2-1.4 3.2-3.1v-2.4h2.3c1.8 0 3.2-1.4 3.2-3.2 0-1.7-1.4-3.2-3.1-3.2z" fill="#70d6f9"/></g></g><g><g><path d="m231.206 56.5c-1.878 0-3.4 1.522-3.4 3.4s1.522 3.4 3.4 3.4 3.4-1.522 3.4-3.4-1.523-3.4-3.4-3.4z" fill="#f5c84c"/></g></g><g><g><path d="m15.15 78.175c-3.1-.6-5.6-3-6.2-6.1 0-.1-.3-.1-.3 0-.6 3.1-3.1 5.5-6.2 6.1-.1 0-.1.2 0 .3 3.1.6 5.6 3 6.2 6.1 0 .1.3.1.3 0 .6-3.1 3.1-5.5 6.2-6.1.1-.1.1-.3 0-.3z" fill="#fc657e"/></g></g><g><g><path d="m79.369 0c-1.878 0-3.4 1.522-3.4 3.4s1.522 3.4 3.4 3.4 3.4-1.522 3.4-3.4-1.523-3.4-3.4-3.4z" fill="#87d147"/></g></g><g><g><path d="m68.15 23.2c-4.5-.8-8-4.3-8.9-8.7 0-.2-.4-.2-.4 0-.9 4.4-4.4 7.9-8.9 8.7-.2 0-.2.3 0 .4 4.5.8 8 4.3 8.9 8.7 0 .2.4.2.4 0 .9-4.4 4.4-7.9 8.9-8.7.2-.1.2-.4 0-.4z" fill="#f5c84c"/></g></g><g><g><path d="m135.102 37.713c-.977-.976-2.559-.976-3.535 0l-4.349 4.349-2.601-2.601c-.977-.977-2.559-.976-3.535 0-.977.976-.977 2.559 0 3.536l4.368 4.369c.469.469 1.104.732 1.768.732s1.299-.263 1.768-.732l6.116-6.117c.976-.977.976-2.56 0-3.536z"/></g></g><g><g><g><g><path d="m128 24.567c-9.618 0-17.443 7.825-17.443 17.443s7.825 17.443 17.443 17.443 17.443-7.825 17.443-17.443-7.825-17.443-17.443-17.443zm0 29.886c-6.861 0-12.443-5.582-12.443-12.443s5.582-12.443 12.443-12.443 12.443 5.582 12.443 12.443-5.582 12.443-12.443 12.443zm37.3-23.047h-8.311c-.297-.815-.628-1.616-.99-2.398l5.874-5.874c.89-.889 1.38-2.072 1.38-3.331s-.49-2.441-1.38-3.331l-8.335-8.335c-.889-.891-2.072-1.381-3.331-1.381-1.258 0-2.44.49-3.33 1.379l-5.875 5.875c-.781-.362-1.582-.693-2.397-.99v-8.31c0-2.597-2.113-4.71-4.71-4.71h-11.789c-2.597 0-4.71 2.113-4.71 4.71v8.311c-.815.297-1.616.628-2.397.99l-5.875-5.874c-.89-.89-2.072-1.38-3.33-1.38-1.259 0-2.442.49-3.33 1.38l-8.336 8.336c-.89.89-1.38 2.072-1.38 3.331s.49 2.441 1.38 3.33l5.874 5.875c-.362.782-.693 1.583-.99 2.398h-8.312c-2.597 0-4.71 2.113-4.71 4.71v11.789c0 2.597 2.113 4.71 4.71 4.71h8.311c.297.815.628 1.616.99 2.398l-5.874 5.874c-1.837 1.836-1.837 4.825 0 6.661l8.335 8.335c.889.891 2.072 1.381 3.331 1.381 1.258 0 2.44-.49 3.33-1.379l5.875-5.875c.781.362 1.582.693 2.397.99v8.31c0 2.597 2.113 4.71 4.71 4.71h11.789c2.597 0 4.71-2.113 4.71-4.71v-8.311c.815-.297 1.616-.628 2.397-.99l5.875 5.874c.89.89 2.072 1.38 3.33 1.38 1.259 0 2.442-.49 3.33-1.38l8.336-8.336c1.837-1.836 1.837-4.825 0-6.661l-5.874-5.874c.362-.782.693-1.583.99-2.398h8.311c2.597 0 4.71-2.113 4.71-4.71v-11.789c.001-2.597-2.113-4.71-4.709-4.71zm-.29 16.209h-9.825c-1.105 0-2.08.727-2.396 1.787-.511 1.718-1.194 3.371-2.03 4.912-.527.973-.352 2.177.431 2.959l6.944 6.945-7.926 7.926-6.945-6.944c-.782-.783-1.986-.958-2.959-.43-1.542.836-3.194 1.52-4.912 2.031-1.06.315-1.786 1.29-1.786 2.396v9.825h-11.209v-9.825c0-1.106-.727-2.081-1.786-2.396-1.718-.511-3.37-1.194-4.912-2.031-.973-.527-2.177-.353-2.959.43l-6.945 6.944-7.926-7.926 6.944-6.945c.782-.782.958-1.986.431-2.959-.836-1.542-1.52-3.194-2.03-4.912-.316-1.06-1.291-1.787-2.396-1.787h-9.828v-11.209h9.825c1.105 0 2.08-.727 2.396-1.787.511-1.718 1.194-3.371 2.03-4.912.527-.973.352-2.177-.431-2.959l-6.944-6.945 7.926-7.926 6.945 6.944c.782.783 1.986.958 2.959.43 1.542-.836 3.194-1.52 4.912-2.031 1.06-.315 1.786-1.29 1.786-2.396v-9.824h11.209v9.825c0 1.106.727 2.081 1.786 2.396 1.718.511 3.37 1.194 4.912 2.031.973.527 2.177.353 2.959-.43l6.945-6.944 7.926 7.926-6.944 6.945c-.782.782-.958 1.986-.431 2.959.836 1.542 1.52 3.194 2.03 4.912.316 1.06 1.291 1.787 2.396 1.787h9.825v11.208z"/></g></g></g></g><g><g><path d="m44.735 252.063-5.685-15.159c-.324-.865-.251-1.823.202-2.628l4.426-7.868c.737-1.311.907-2.887.467-4.324-.441-1.437-1.466-2.647-2.81-3.318l-3.739-1.87c-1.065-.533-1.728-1.604-1.728-2.795v-30.558c0-1.381-1.119-2.5-2.5-2.5s-2.5 1.119-2.5 2.5v30.557c0 3.097 1.721 5.882 4.491 7.267l3.74 1.87c.164.083.234.215.265.313.029.097.046.247-.044.407l-4.426 7.868c-1.179 2.095-1.37 4.587-.526 6.836l5.685 15.158c.376 1.003 1.329 1.623 2.341 1.623.292 0 .589-.051.878-.16 1.293-.486 1.948-1.927 1.463-3.219z"/></g></g><g><g><path d="m99.66 181.042c-1.381 0-2.5 1.119-2.5 2.5v30.558c0 1.191-.662 2.262-1.728 2.795l-3.739 1.87c-1.344.672-2.368 1.882-2.809 3.319-.44 1.438-.271 3.013.467 4.324l4.426 7.868c.453.806.526 1.764.202 2.629l-5.655 15.081c-.484 1.293.17 2.734 1.463 3.219.289.108.586.16.878.16 1.012 0 1.965-.619 2.341-1.623l5.655-15.081c.844-2.25.652-4.741-.526-6.836l-4.426-7.868c-.09-.16-.073-.31-.044-.407.03-.097.101-.23.265-.313l3.738-1.869c2.771-1.385 4.492-4.169 4.492-7.267v-30.558c0-1.382-1.119-2.501-2.5-2.501z"/></g></g><g><g><path d="m93.429 178.37-4.25-3.712c-.964-.842-2.196-1.259-3.475-1.172-1.276.086-2.442.664-3.284 1.628l-12.837 14.697c-.842.963-1.258 2.197-1.172 3.474.086 1.276.664 2.443 1.628 3.284l6.901 6.028c.881.77 1.986 1.183 3.145 1.183.109 0 .22-.003.33-.011 1.276-.086 2.442-.664 3.284-1.628l6.254-7.161c.908-1.04.802-2.619-.238-3.527-1.039-.908-2.619-.803-3.527.238l-6.115 7.002-6.585-5.751 12.56-14.38 4.093 3.574c1.038.908 2.618.802 3.527-.238.907-1.041.801-2.62-.239-3.528z"/></g></g><g><g><path d="m63.447 189.812-12.837-14.698c-.842-.964-2.008-1.542-3.284-1.628-1.279-.087-2.511.33-3.474 1.171l-4.228 3.692c-1.04.908-1.146 2.487-.238 3.527s2.488 1.147 3.527.238l4.069-3.554 12.56 14.38-6.585 5.751-6.09-6.972c-.908-1.041-2.489-1.146-3.527-.238-1.04.908-1.146 2.487-.238 3.527l6.229 7.131c.842.964 2.008 1.542 3.284 1.628.11.008.221.011.33.011 1.158 0 2.264-.414 3.144-1.183l6.902-6.028c.964-.841 1.542-2.008 1.628-3.284.086-1.275-.33-2.509-1.172-3.471z"/></g></g><g><g><path d="m74.652 206.033c-.135-1.375-1.364-2.372-2.732-2.244-1.374.135-2.379 1.358-2.244 2.732l4.573 46.592c.127 1.291 1.215 2.256 2.485 2.256.082 0 .164-.004.247-.012 1.374-.135 2.379-1.358 2.244-2.732z"/></g></g><g><g><path d="m61.109 203.789c-1.371-.127-2.598.87-2.732 2.244l-4.573 46.592c-.135 1.374.87 2.597 2.244 2.732.083.008.165.012.247.012 1.271 0 2.358-.965 2.485-2.256l4.573-46.592c.135-1.374-.87-2.597-2.244-2.732z"/></g></g><g><g><g><path d="m76.569 196.367c-1.261-.559-2.738.006-3.3 1.269l-2.73 6.142h-8.049l-2.637-5.932c-.562-1.263-2.04-1.829-3.3-1.27-1.262.561-1.83 2.038-1.269 3.3l3.296 7.417c.4.903 1.296 1.485 2.284 1.485h11.299c.988 0 1.883-.582 2.284-1.484l3.39-7.626c.562-1.262-.006-2.74-1.268-3.301z"/></g></g><g><g><path d="m70.22 190.865h-7.313c-1.381 0-2.5 1.119-2.5 2.5s1.119 2.5 2.5 2.5h7.313c1.381 0 2.5-1.119 2.5-2.5s-1.119-2.5-2.5-2.5z"/></g></g></g><g><g><path d="m166.013 237.035c-.25-.775-.106-1.628.383-2.281l3.277-4.369c2.108-2.811 1.968-6.779-.333-9.434l-6.513-7.514c-.43-.496-.646-1.13-.611-1.785l1.492-27.362c.075-1.379-.981-2.557-2.36-2.632-1.368-.086-2.557.981-2.632 2.36l-1.492 27.363c-.106 1.958.542 3.852 1.825 5.332l6.512 7.514c.771.89.818 2.218.112 3.16l-3.277 4.37c-1.462 1.95-1.889 4.498-1.142 6.814l4.873 15.132c.342 1.06 1.323 1.734 2.379 1.734.254 0 .513-.039.768-.121 1.314-.423 2.036-1.832 1.613-3.146z"/></g></g><g><g><path d="m225.326 216.712c1.284-1.48 1.933-3.374 1.826-5.333l-1.491-27.324c-.074-1.378-1.245-2.443-2.633-2.36-1.378.075-2.435 1.253-2.359 2.632l1.491 27.323c.035.656-.182 1.291-.612 1.787l-6.512 7.514c-2.301 2.655-2.441 6.623-.333 9.434l3.277 4.369c.489.653.632 1.506.382 2.283l-4.906 15.236c-.423 1.314.3 2.723 1.613 3.146.255.082.514.121.768.121 1.056 0 2.037-.675 2.379-1.734l4.906-15.236c.746-2.318.319-4.866-1.142-6.815l-3.277-4.369c-.706-.941-.659-2.27.112-3.16z"/></g></g><g><g><path d="m189.831 189.326-12.66-13.608c-.868-.935-2.305-1.064-3.326-.3-.271.203-.512.358-.736.476-1.223.641-1.694 2.152-1.053 3.375.539 1.029 1.696 1.527 2.776 1.275l11.339 12.188c.048.052.044.163-.008.211l-3.059 2.845c-1.623 1.51-3.742 2.233-5.953 2.046-1.381-.12-2.587.901-2.705 2.277-.118 1.375.901 2.586 2.277 2.705.38.033.759.049 1.135.049 3.224 0 6.261-1.191 8.652-3.416l3.059-2.845c1.007-.937 1.589-2.21 1.639-3.585.049-1.374-.439-2.686-1.377-3.693z"/></g></g><g><g><path d="m211.266 175.893c-.225-.117-.458-.268-.734-.475-1.023-.765-2.458-.635-3.326.3l-12.66 13.607c-.938 1.007-1.426 2.319-1.377 3.693.05 1.375.632 2.648 1.639 3.584l3.059 2.846c2.391 2.225 5.428 3.417 8.652 3.416.376 0 .755-.016 1.135-.049 1.376-.118 2.396-1.329 2.277-2.705s-1.332-2.401-2.705-2.277c-2.214.191-4.331-.536-5.953-2.046l-3.059-2.846c-.052-.048-.056-.159-.008-.211l11.339-12.188c1.081.25 2.238-.248 2.777-1.278.64-1.221.166-2.731-1.056-3.371z"/></g></g><g><g><path d="m195.094 190.865h-5.844c-1.381 0-2.5 1.119-2.5 2.5s1.119 2.5 2.5 2.5h5.844c1.381 0 2.5-1.119 2.5-2.5s-1.119-2.5-2.5-2.5z"/></g></g></g></g></svg>