<svg id="Flat" height="512" viewBox="0 0 340 340" width="512" xmlns="http://www.w3.org/2000/svg"><path d="m258.872 171.341-5.6-3.045a9.724 9.724 0 0 1 -6.23-3.387l-11.392-6.194h-67.776l-11.2 5.836a11.35 11.35 0 0 1 -6.281 3.274l-.927.483a23.236 23.236 0 0 0 -12.388 21.91l6.262 108.257s0 5.657 6.514 10.2a19.931 19.931 0 0 0 11.438 3.47h80.933a19.928 19.928 0 0 0 11.437-3.47c6.515-4.548 6.515-10.2 6.515-10.2z" fill="#585875"/><path d="m201.761 154.748-26.1 27.089a191.214 191.214 0 0 0 13.746 25.075h24.71a191.212 191.212 0 0 0 13.747-25.075z" fill="#c1cbe0"/><path d="m191.369 188.408-1.96 18.5a196.8 196.8 0 0 0 12.352 17.235 196.8 196.8 0 0 0 12.352-17.235l-2.651-25.037c-6.507-1.566-13.215.815-20.093 6.537z" fill="#fc6383"/><path d="m208.73 156.08h-13.937l-3.424 32.328c3.04-2.33 9.683-6.238 20.093-6.534z" fill="#db3e64"/><path d="m219.026 149.721h-34.526l-16.623 8.994a116.753 116.753 0 0 0 7.793 23.119l26.094-16.359 26.094 16.359a116.821 116.821 0 0 0 7.794-23.119z" fill="#fff"/><path d="m184.497 139.912v9.809l17.264 15.754 17.265-15.754v-11.491z" fill="#ffcac0"/><path d="m173.288 295.22s69.445-.73 69.6-1.941c.078-.621 1.964-4.938 3.778-8.987a5.148 5.148 0 0 0 -4.708-7.248c-2.438 0-4.572-.059-6.341-.131a5.975 5.975 0 0 1 -5.737-5.97v-8.065a21.63 21.63 0 0 0 -21.631-21.631h-6.484c-32.116-24.1-44.875-60.824-48.636-74.255a15.689 15.689 0 0 1 -2.729.833l-.927.483a23.236 23.236 0 0 0 -12.388 21.91l5.4 93.4 1.932 6.937z" fill="#3e3e59"/><path d="m198.478 288.543h-44.4v-35.66h44.4a17.83 17.83 0 0 1 17.83 17.83 17.83 17.83 0 0 1 -17.83 17.83z" fill="#d37577"/><path d="m184.5 139.912c14.114 3.087 29.218.617 34.529-1.682v-20.53h-34.529z" fill="#ef9292"/><path d="m258.872 171.341 4.33 3.092a29.7 29.7 0 0 1 11.615 17.2c4.293 17.772 12.782 54.273 17.81 84.95a38.027 38.027 0 0 1 -20.9 40.451c-14.165 6.804-35.527 12.966-66.438 12.966l-.973-41.457s28.59-3 45.716-11.673c0 0-1.459-20.69-5.349-37.7z" fill="#585875"/><path d="m121.761 330h-41.869a20.464 20.464 0 0 1 -20.464-20.463v-.531a20.463 20.463 0 0 1 20.464-20.463h41.869z" fill="#6ca3d8"/><path d="m165.512 330h-46.844c-27.434-8.108-19.61-38.867.158-41.457h51.93z" fill="#d9e1ed"/><path d="m97.63 254.434a17.706 17.706 0 0 1 9.012 12.451 6.061 6.061 0 0 1 .066 7.5 17.5 17.5 0 0 1 -8.532 12.6.823.823 0 0 0 .4 1.553h56.065c21.117-5.671 24.393-28.628 0-35.66h-56.608a.822.822 0 0 0 -.403 1.556z" fill="#d9e1ed"/><path d="m47.355 193.086a20.635 20.635 0 0 1 5.545 11.159c1.465 2.828 1.647 5.378.118 7.559a19.547 19.547 0 0 1 -5.25 11.214 1.686 1.686 0 0 0 1.216 2.863h88.876a17.83 17.83 0 0 0 17.83-17.83 17.83 17.83 0 0 0 -17.83-17.83h-89.293a1.686 1.686 0 0 0 -1.212 2.865z" fill="#d9e1ed"/><path d="m116.249 252.883h-46.994a6.854 6.854 0 0 1 -6.854-6.854v-13.294a6.853 6.853 0 0 1 6.854-6.854h58.4q-1.855 13.5-11.406 27.002z" fill="#ffb655"/><path d="m247.041 164.909c-6.28 19.821-22.89 52.305-41.4 70.85a6.137 6.137 0 0 1 -8.657 0c-18.852-18.889-33.821-51.466-40.308-71.209l-6.281 3.274c6.934 20.573 22.3 53.507 41.635 72.88a13.136 13.136 0 0 0 18.565 0c18.8-18.84 35.741-51.548 42.675-72.408z" fill="#fff"/><path d="m168.405 86.062s-18.36-3.566-22.6-22.083a49.54 49.54 0 0 1 -.368-18.971c2.39-14.464 15.043-25.208 29.689-24.571q.63.027 1.277.076s9.263-10.513 29.662-10.513c27.3 0 46.379 19.724 50.694 51.384 2.6 19.07-12.517 36.227-31.742 35.321-.453-.022-.912-.05-1.378-.087z" fill="#3e3e59"/><path d="m160.856 77.183h-4.475a12.745 12.745 0 0 0 -12.745 12.745v5.438a12.745 12.745 0 0 0 12.745 12.745h5.268z" fill="#ef9292"/><path d="m228.818 80.142s15.949.677 15.949 9.786v5.438a12.745 12.745 0 0 1 -12.745 12.745h-5.268z" fill="#ef9292"/><path d="m182.056 40.285s1.57 35.616 46.762 42.834v23.581a24.026 24.026 0 0 1 -15.977 22.816 42.935 42.935 0 0 1 -13.994 2.094s-22.107 3.206-34.037-14.41a33.159 33.159 0 0 1 -5.51-18.621v-16.834a29.821 29.821 0 0 1 .927-7.423c1.932-7.5 7.459-23 21.829-34.037z" fill="#ffcac0"/><path d="m228.818 91.389v-11.247c-45.192-7.218-46.761-39.857-46.761-39.857s-9.843 40.754 46.761 51.104z" fill="#ef9292"/><circle cx="172.056" cy="89.137" fill="#b9c8db" r="19.151"/><circle cx="172.056" cy="89.137" fill="#fff" r="13.542"/><circle cx="216.467" cy="89.137" fill="#b9c8db" r="19.151"/><path d="m195.948 119.871a18.474 18.474 0 0 1 -7.433-1.41 3.471 3.471 0 0 1 2.785-6.361 11.545 11.545 0 0 0 4.645.826 13.287 13.287 0 0 0 5.155-.926 3.471 3.471 0 0 1 2.688 6.4 20.275 20.275 0 0 1 -7.84 1.471z" fill="#ef9292"/><path d="m187.192 85.883h12.94v6.508h-12.94z" fill="#b9c8db"/><circle cx="216.467" cy="89.137" fill="#fff" r="13.542"/><g fill="#b4c3d8"><path d="m137.715 204.3h-84.81a24.588 24.588 0 0 1 .095 7.5h84.716a3.751 3.751 0 0 0 0-7.5z"/><path d="m158.017 270.638a3.75 3.75 0 0 0 -3.75-3.751h-47.634a20.7 20.7 0 0 1 .069 7.5h47.565a3.75 3.75 0 0 0 3.75-3.749z"/><path d="m200.24 297.652h-76.869a3.751 3.751 0 1 0 0 7.5h76.869z"/><path d="m200.24 320.891v-7.5h-81.565a3.751 3.751 0 0 0 0 7.5z"/><path d="m158.017 307.474c-1.408 9.25 3.016 17.142 7.5 22.526h34.723v-41.457h-29.484a26.039 26.039 0 0 0 -12.739 18.931z"/></g><path d="m204.316 288.543s8.368 5.272 8.368 20.728c0 0 .464 13.938-7.4 20.729h-16.76a20.729 20.729 0 0 1 -20.724-20.729 20.729 20.729 0 0 1 20.729-20.728z" fill="#ffcac0"/><path d="m116.249 252.883h49.027a6.854 6.854 0 0 0 6.854-6.854v-13.294a6.854 6.854 0 0 0 -6.854-6.854h-37.617z" fill="#ea8744"/></svg>