<svg id="Layer_1" viewBox="0 0 128 128" xmlns="http://www.w3.org/2000/svg" data-name="Layer 1"><path d="m80.674 105.452 4.652 8.338 6.126-11.792-4.935-4z" fill="#e1ebf4"/><path d="m87.06445 80.42676c-1.93506 2.34961-4.58935 5.57324-10.02445 5.57324-5.49512 0-8.14746-3.2207-10.084-5.57227l-.25977-.31055c-.3161-.37726-.66809-.7901-1.04395-1.21478l-6.44086 4.80182v11.37778a10.77756 10.77756 0 0 1 2.32806-1.73633c.05859-.03223.11768-.0625.17725-.0918a10.857 10.857 0 0 1 14.52539 4.25488l.75836 1.35938.7558-1.35449a10.85336 10.85336 0 0 1 14.62061-4.21c.10852.05975.2074.12958.31317.1922v-12.07232l-4.42371-2.40717c-.42626.48457-.8308.96119-1.2019 1.41041z" fill="#fc785e"/><path d="m111 93.998h2a9.93135 9.93135 0 0 1 3.94366.81982v-10.26856h-14.53521v14.33953a10.00273 10.00273 0 0 1 8.59155-4.89079z" fill="#ffdb80"/><path d="m88 62.98v-.01c-.01-4.05-.95-6.86-2.9-8.59-2.65-2.34-6.3-1.9-8.97-1.57a19.14067 19.14067 0 0 1 -2.13.19 20.48425 20.48425 0 0 1 -7.15-1.81 1.98836 1.98836 0 0 0 -1.62-.03 1.95118 1.95118 0 0 0 -1.12 1.18c-2.15 6.16-.09 9.97 1.89 11.68a41.30994 41.30994 0 0 0 .09 5.2h-.09c.09 1.88.41 4.61 2.22 6.55.7.76 1.29 1.48 1.82 2.11 1.82 2.21 3.39 4.12 7 4.12 3.54 0 5.12-1.91 6.94-4.12.52-.63 1.12-1.35 1.82-2.11 1.24-1.33 1.94-3.46 2.16-6.5.1-.91.08-2.62.04-6.29zm-20.66-7.3a21.21067 21.21067 0 0 0 6.66 1.32 22.76544 22.76544 0 0 0 2.61-.22c2.13-.26 4.54-.55 5.84.6a5.77606 5.77606 0 0 1 1.44 3.62h-15.27c-.65-.55-1.88-2.06-1.28-5.32zm16.63 13.27v.03c-.2 2.82-.84 3.78-1.1 4.07-.78.84-1.42 1.61-1.98 2.29-1.7 2.06-2.27 2.66-3.91 2.66-1.59 0-2.15-.6-3.86-2.66-.56-.68-1.19-1.45-1.97-2.29-.69-.74-1.06-2.05-1.15-4.01v-.04c-.01-.4-.02-2.44-.02-4h14.02c0 1.67-.02 3.58-.03 3.95z" fill="#2d4356"/><path d="m83.89 61h-15.27c-.65-.55-1.88-2.06-1.28-5.32a21.21067 21.21067 0 0 0 6.66 1.32 22.76544 22.76544 0 0 0 2.61-.22c2.13-.26 4.54-.55 5.84.6a5.77606 5.77606 0 0 1 1.44 3.62z" fill="#d68751"/><path d="m84 65c0 1.67-.02 3.58-.03 3.95v.03c-.2 2.82-.84 3.78-1.1 4.07-.78.84-1.42 1.61-1.98 2.29-1.7 2.06-2.27 2.66-3.91 2.66-1.59 0-2.15-.6-3.86-2.66-.56-.68-1.19-1.45-1.97-2.29-.69-.74-1.06-2.05-1.15-4.01v-.04c-.01-.4-.02-2.44-.02-4z" fill="#e1ebf4"/><g fill="#2d4356"><path d="m84 87.998v4.50067a10.87363 10.87363 0 0 1 3.21-.50079c.26434 0 .52679.03009.79.04944v-4.04932a2 2 0 0 0 -4 0z"/><path d="m96 96.49072v-12.14209a7.24268 7.24268 0 0 0 -3.64014-6.37775l-2.31262-1.28314a9.88018 9.88018 0 0 1 -1.32068 1.80847c-.43744.47034-.82294.92377-1.19574 1.36993l2.88861 1.60266a3.28908 3.28908 0 0 1 1.58057 2.87983v8.78125c.128.06281.26221.11157.3877.1795.01953.01074.09912.05469.11865.06641a10.54051 10.54051 0 0 1 3.49365 3.11493z"/><path d="m65.28809 78.49524a10.69959 10.69959 0 0 1 -1.34985-1.79938l-2.2981 1.275a7.24268 7.24268 0 0 0 -3.64014 6.37777v12.14537a10.67888 10.67888 0 0 1 3.53955-3.14459c.01563-.00879.04395-.02344.07373-.03906v-.001c.12512-.06775.25909-.11646.38672-.17914v-8.78158a3.28908 3.28908 0 0 1 1.58057-2.87982l2.899-1.60846c-.37062-.44403-.75398-.89514-1.19148-1.36511z"/><path d="m70 92.49866v-4.50066a2 2 0 0 0 -4 0v4.04938c.26324-.01935.52563-.0495.79-.0495a10.87363 10.87363 0 0 1 3.21.50078z"/><path d="m84.74518 112.74854 1.912 3.42651c.13116.23511.24384.47662.356.7182l6.15082-11.02264a6.52381 6.52381 0 0 0 .58154-5.00964 6.64659 6.64659 0 0 0 -3.21387-4.00873l-.05615-.0293a6.846 6.846 0 0 0 -9.22607 2.63959l-1.959 3.5108 2.29041 4.10455 3.1618-5.66614a2.8384 2.8384 0 0 1 3.855-1.05664l.03906.02051a2.6717 2.6717 0 0 1 1.26367 1.58789 2.549 2.549 0 0 1 -.22949 1.95795z"/></g><path d="m109.59 62.24-.59 21.93-7.54.51v10.48a1.23565 1.23565 0 0 0 -1.46-.29v-10.52a11.243 11.243 0 0 0 -5.7-9.88l-2.31-1.28a3.18661 3.18661 0 0 0 -.54-.24 22.7332 22.7332 0 0 0 .49-3.33 34.02586 34.02586 0 0 0 .08-3.62c0-.58 0-1.24-.01-2 0-.32-.01-.66-.01-1.02v-.08a4.42939 4.42939 0 0 0 -.02-.52c0-.13-.01-.26-.02-.38v-.12z" fill="#98e07e"/><path d="m62.47 72.97a4.08669 4.08669 0 0 0 -.47.23l-2.3 1.27a11.243 11.243 0 0 0 -5.7 9.88v12.14a3.98867 3.98867 0 0 0 2.33 3.63 10.079 10.079 0 0 0 -.3 1.88h-5.64s.26-11.62 0-14.66c-.25-3.04-7.84-3.68-7.84-3.68v-16.72c0-7.46 5.94-5.94 5.94-5.94l11.25.23a12.68074 12.68074 0 0 0 1.18 2.77 11.90528 11.90528 0 0 0 1.04 1.55v.45c0 .94.03 1.89.08 2.69a4.17709 4.17709 0 0 0 -.03.71 18.46842 18.46842 0 0 0 .46 3.57z" fill="#98e07e"/><path d="m57.34277 107.82031a10.49719 10.49719 0 0 1 -1.317-5.82263h-5.12434v9.17132h8.31006z" fill="#ffdb80"/><path d="m83.16 118.12-10.41-18.66a6.85108 6.85108 0 0 0 -9.22-2.64l-.06006.03a6.70085 6.70085 0 0 0 -3.22 4.01 6.544 6.544 0 0 0 .59 5.01l10.41 18.66a6.84228 6.84228 0 0 0 9.22 2.64l.06006-.03a6.673 6.673 0 0 0 3.22-4.01 6.54392 6.54392 0 0 0 -.59-5.01zm-3.26 3.91a2.68973 2.68973 0 0 1 -1.26 1.59c-.02.01-.03.01-.04.02a2.84761 2.84761 0 0 1 -3.86-1.06l-10.41-18.66a2.53376 2.53376 0 0 1 -.23-1.96 2.64148 2.64148 0 0 1 1.26-1.58c.02-.01.03-.02.04-.02a2.83561 2.83561 0 0 1 3.86 1.05l10.41 18.66a2.53871 2.53871 0 0 1 .23 1.96z" fill="#2d4356"/><path d="m79.9 122.03a2.68973 2.68973 0 0 1 -1.26 1.59c-.02.01-.03.01-.04.02a2.84761 2.84761 0 0 1 -3.86-1.06l-10.41-18.66a2.53376 2.53376 0 0 1 -.23-1.96 2.64148 2.64148 0 0 1 1.26-1.58c.02-.01.03-.02.04-.02a2.83561 2.83561 0 0 1 3.86 1.05l10.41 18.66a2.53871 2.53871 0 0 1 .23 1.96z" fill="#e1ebf4"/><path d="m24 88h-2.85l.85-11.86a2.02215 2.02215 0 0 0 -.54-1.5 1.95953 1.95953 0 0 0 -1.46-.64h-12a1.95953 1.95953 0 0 0 -1.46.64 2.02215 2.02215 0 0 0 -.54 1.5l.85 11.86h-2.85a3.99887 3.99887 0 0 0 -4 4v32a4.00529 4.00529 0 0 0 4 4h20a4.00529 4.00529 0 0 0 4-4v-32a3.99887 3.99887 0 0 0 -4-4zm-6.15-10-.71 10h-6.28l-.71-10zm6.15 46h-20v-32h20z" fill="#2d4356"/><path d="m17.85 78-.71 10h-6.28l-.71-10z" fill="#e1ebf4"/><path d="m4 92h20v32h-20z" fill="#d68751"/><path d="m122 106h-3v-2a6.00476 6.00476 0 0 0 -6-6h-2a6.00476 6.00476 0 0 0 -6 6v2h-3a6.00476 6.00476 0 0 0 -6 6v10a6.00476 6.00476 0 0 0 6 6h20a6.00476 6.00476 0 0 0 6-6v-10a6.00476 6.00476 0 0 0 -6-6zm-13-2a2.00587 2.00587 0 0 1 2-2h2a2.00587 2.00587 0 0 1 2 2v2h-6zm15 18a2.00591 2.00591 0 0 1 -2 2h-20a2.00591 2.00591 0 0 1 -2-2v-10a1.99947 1.99947 0 0 1 2-2h20a1.99947 1.99947 0 0 1 2 2z" fill="#2d4356"/><path d="m124 112v10a2.00591 2.00591 0 0 1 -2 2h-20a2.00591 2.00591 0 0 1 -2-2v-10a1.99947 1.99947 0 0 1 2-2h20a1.99947 1.99947 0 0 1 2 2z" fill="#fc785e"/><path d="m21 25.2v-23.2a2 2 0 0 0 -4 0v23.2a10.01727 10.01727 0 0 0 -8 9.8 2.00591 2.00591 0 0 0 2 2h16a2.00591 2.00591 0 0 0 2-2 10.01727 10.01727 0 0 0 -8-9.8zm-7.66 7.8a6.00441 6.00441 0 0 1 11.32 0z" fill="#2d4356"/><path d="m24.66 33h-11.32a6.00441 6.00441 0 0 1 11.32 0z" fill="#ffdb80"/><path d="m111 25.2v-23.2a2 2 0 0 0 -4 0v23.2a10.01727 10.01727 0 0 0 -8 9.8 2.00591 2.00591 0 0 0 2 2h16a2.00591 2.00591 0 0 0 2-2 10.01727 10.01727 0 0 0 -8-9.8zm-7.66 7.8a6.00441 6.00441 0 0 1 11.32 0z" fill="#2d4356"/><path d="m114.66 33h-11.32a6.00441 6.00441 0 0 1 11.32 0z" fill="#ffdb80"/><path d="m82 5h-36a6.00476 6.00476 0 0 0 -6 6v22a6.00476 6.00476 0 0 0 6 6h36a6.00476 6.00476 0 0 0 6-6v-22a6.00476 6.00476 0 0 0 -6-6zm2 28a2.00591 2.00591 0 0 1 -2 2h-36a2.00591 2.00591 0 0 1 -2-2v-22a2.00587 2.00587 0 0 1 2-2h36a2.00587 2.00587 0 0 1 2 2z" fill="#2d4356"/><rect fill="#81d9e3" height="26" rx="2" width="40" x="44" y="9"/><path d="m52 110v-6h4.08a10.81859 10.81859 0 0 1 .27-4h-4.35v-12a6.00476 6.00476 0 0 0 -6-6h-1v-16a2.00587 2.00587 0 0 1 2-2h13.92a12.7925 12.7925 0 0 1 -1.48-4h-12.44a6.00476 6.00476 0 0 0 -6 6v16h-3a6.00476 6.00476 0 0 0 -6 6v38a2.00591 2.00591 0 0 0 2 2h16a2.00591 2.00591 0 0 0 2-2v-12h8.79l-2.23-4zm-4 14h-12v-36a2.00587 2.00587 0 0 1 2-2h8a2.00587 2.00587 0 0 1 2 2z" fill="#2d4356"/><path d="m48 88v36h-12v-36a2.00587 2.00587 0 0 1 2-2h8a2.00587 2.00587 0 0 1 2 2z" fill="#ffdb80"/><path d="m120 96.86267v-8.86467a6.0065 6.0065 0 0 0 -6-5.99988h-2v-15.99965a6.0065 6.0065 0 0 0 -6-5.99988h-14.17969a24.74792 24.74792 0 0 1 .17761 2.90088l.00208.03412c.004.37573.00763.72467.01111 1.06494h13.98889a2.00193 2.00193 0 0 1 2 1.99994v15.99964h-2a6.0065 6.0065 0 0 0 -6 5.99988v11.99969h-2.35382a10.60628 10.60628 0 0 1 .34406 2.85083 9.90334 9.90334 0 0 1 3.2041-.81866 9.9925 9.9925 0 0 1 2.80566-5.16718v-8.86467a2.00224 2.00224 0 0 1 2-1.99994h8a2.00224 2.00224 0 0 1 2 1.99994v6.4691a10.00818 10.00818 0 0 1 4 2.39557z" fill="#2d4356"/><path d="m84 65c0 1.67-.02 3.58-.03 3.95v.03c-.2 2.82-.84 3.78-1.1 4.07-.78.84-1.42 1.61-1.98 2.29-1.7 2.06-2.27 2.66-3.91 2.66-1.59 0-2.15-.6-3.86-2.66-.56-.68-1.19-1.45-1.97-2.29-.69-.74-1.06-2.05-1.15-4.01v-.04c-.01-.4-.02-2.44-.02-4h.01c0 .95 0 1.76.01 2v.04c.09 1.96.46 3.27 1.15 4.01.78.84 1.41 1.61 1.97 2.29 1.71 2.06 2.27 2.66 3.86 2.66 1.64 0 2.21-.6 3.91-2.66.56-.68 1.2-1.45 1.98-2.29.26-.29.9-1.25 1.1-4.07v-.03c.01-.22.02-1 .02-1.95z" fill="#9fa5aa" opacity=".5"/><path d="m83.89 61h-.44a3.78567 3.78567 0 0 0 -1-1.62c-1.3-1.15-3.71-.86-5.84-.6a22.76544 22.76544 0 0 1 -2.61.22 21.21067 21.21067 0 0 1 -6.66-1.32c-.04.21-.07.41-.09.61a7.86169 7.86169 0 0 1 .09-2.61 21.21067 21.21067 0 0 0 6.66 1.32 22.76544 22.76544 0 0 0 2.61-.22c2.13-.26 4.54-.55 5.84.6a5.77606 5.77606 0 0 1 1.44 3.62z" fill="#e5d0c3" opacity=".3"/><path d="m79.9 122.03a2.68973 2.68973 0 0 1 -1.26 1.59c-.02.01-.03.01-.04.02a2.84761 2.84761 0 0 1 -3.86-1.06l-10.41-18.66a2.53376 2.53376 0 0 1 -.23-1.96 2.82835 2.82835 0 0 1 .11-.31 1.59358 1.59358 0 0 0 .12.27l10.41 18.66a2.84761 2.84761 0 0 0 3.86 1.06c.01-.01.02-.01.04-.02a2.74047 2.74047 0 0 0 1.15-1.28 2.46241 2.46241 0 0 1 .11 1.69z" fill="#9fa5aa" opacity=".5"/><path d="m4 122h20v2h-20z" fill="#72492d" opacity=".4"/><path d="m4 92h20v2h-20z" fill="#e5d0c3" opacity=".3"/><path d="m17.85 78-.14 2h-7.42l-.14-2z" fill="#fff" opacity=".5"/><path d="m124 120v2a2.00591 2.00591 0 0 1 -2 2h-20a2.00591 2.00591 0 0 1 -2-2v-2a2.00591 2.00591 0 0 0 2 2h20a2.00591 2.00591 0 0 0 2-2z" fill="#a54b3f" opacity=".5"/><path d="m124 112v2a1.99947 1.99947 0 0 0 -2-2h-20a1.99947 1.99947 0 0 0 -2 2v-2a1.99947 1.99947 0 0 1 2-2h20a1.99947 1.99947 0 0 1 2 2z" fill="#f9dbd7" opacity=".3"/><path d="m24.66 33h-1.2a5.97295 5.97295 0 0 0 -8.92 0h-1.2a6.00441 6.00441 0 0 1 11.32 0z" fill="#f9edd2" opacity=".5"/><path d="m114.66 33h-1.2a5.97295 5.97295 0 0 0 -8.92 0h-1.2a6.00441 6.00441 0 0 1 11.32 0z" fill="#f9edd2" opacity=".5"/><path d="m84 31v2a2.00591 2.00591 0 0 1 -2 2h-36a2.00591 2.00591 0 0 1 -2-2v-2a2.00591 2.00591 0 0 0 2 2h36a2.00591 2.00591 0 0 0 2-2z" fill="#0f423c" opacity=".3"/><path d="m84 11v2a2.00587 2.00587 0 0 0 -2-2h-36a2.00587 2.00587 0 0 0 -2 2v-2a2.00587 2.00587 0 0 1 2-2h36a2.00587 2.00587 0 0 1 2 2z" fill="#e8fbfc" opacity=".4"/><path d="m48 88v2a2.00587 2.00587 0 0 0 -2-2h-8a2.00587 2.00587 0 0 0 -2 2v-2a2.00587 2.00587 0 0 1 2-2h8a2.00587 2.00587 0 0 1 2 2z" fill="#f9edd2" opacity=".5"/><path d="m36 122h12v2h-12z" fill="#ad9359" opacity=".45"/><path d="m61.96 65.55v.45h-14.96a2.00587 2.00587 0 0 0 -2 2v-2a2.00587 2.00587 0 0 1 2-2h13.92a11.90528 11.90528 0 0 0 1.04 1.55z" fill="#e8fbfc" opacity=".4"/><path d="m91.98 62.38c0-.13-.01-.26-.02-.38h.01a2.37857 2.37857 0 0 1 .01.38z" fill="#e8fbfc" opacity=".4"/><path d="m108 66v2a2.00587 2.00587 0 0 0 -2-2h-13.98c0-.58 0-1.24-.01-2h13.99a2.00587 2.00587 0 0 1 2 2z" fill="#e8fbfc" opacity=".4"/><path d="m116 88v2a2.00587 2.00587 0 0 0 -2-2h-8a2.00587 2.00587 0 0 0 -2 2v-2a2.00587 2.00587 0 0 1 2-2h8a2.00587 2.00587 0 0 1 2 2z" fill="#f9edd2" opacity=".5"/></svg>