<svg id="Layer_1" height="512" viewBox="0 0 256 256" width="512" xmlns="http://www.w3.org/2000/svg"><g><path d="m62.138 119.03c-3.729-1.228-6.641-2.022-8.591-10.421-.635-2.737-4.548-2.729-5.181 0-1.907 8.213-4.566 9.092-8.591 10.422-2.424.801-2.43 4.248 0 5.051 6.686 2.209 7.444 5.476 8.591 10.421.637 2.743 4.545 2.742 5.182 0 1.905-8.212 4.709-9.139 8.591-10.421 2.423-.802 2.429-4.249-.001-5.052z"/><path d="m55.006 121.639c-1.47 1.04-2.79 2.42-3.93 4.44-.95-1.59-2.25-3.09-4.17-4.4 1.55-1.06 2.94-2.51 4.12-4.64 1.2 2.16 2.57 3.59 3.98 4.6z" fill="#f0c020"/><g><path d="m215.775 119.03c-3.729-1.228-6.641-2.022-8.591-10.421-.635-2.737-4.548-2.729-5.181 0-1.907 8.213-4.566 9.092-8.591 10.422-2.424.801-2.43 4.248 0 5.051 6.686 2.209 7.444 5.476 8.591 10.421.637 2.743 4.545 2.742 5.182 0 1.905-8.212 4.709-9.139 8.591-10.421 2.423-.802 2.429-4.249-.001-5.052z"/><path d="m208.643 121.639c-1.47 1.04-2.79 2.42-3.93 4.44-.95-1.59-2.25-3.09-4.17-4.4 1.55-1.06 2.94-2.51 4.12-4.64 1.2 2.16 2.57 3.59 3.98 4.6z" fill="#f0c020"/></g><g><path d="m234.104 160.355-46.546 46.536-13.429-13.429 46.536-46.546c3.708-3.718 9.73-3.718 13.438 0 3.687 3.669 3.725 9.715.001 13.439z" fill="#feb69f"/><g><path d="m81.881 193.463-13.438 13.438-46.546-46.546c-3.726-3.726-3.685-9.772 0-13.438 3.708-3.718 9.721-3.718 13.438 0z" fill="#feb69f"/><path d="m188.902 212.261-18.861 18.852v18.49h-84.092v-18.49l-18.849-18.849c-1.112-1.112-1.111-2.916.003-4.026l1.34-1.336 13.438-13.438 1.336-1.34c1.111-1.114 2.914-1.115 4.026-.003l14.175 14.175c1.779 1.779 4.191 2.778 6.706 2.778h39.752c2.515 0 4.927-.999 6.706-2.778l14.178-14.178c1.111-1.111 2.912-1.111 4.024 0l1.345 1.345 14.774 14.774c1.111 1.111 1.111 2.913-.001 4.024z" fill="#72c2e9"/></g></g><g><path d="m157.514 157.769-3.28 3.329h-52.467v-7.601c0-6.638 5.401-11.902 11.911-11.902h28.291c4.33 0 8.042-3.083 8.848-7.326l4.753 3.25c6.786 4.626 7.768 14.368 1.944 20.25z" fill="#7c7b7a"/><path d="m156.889 172.45h-2.665v-11.353h-52.467v11.364h-2.634c-4.188 0-7.556 3.379-7.556 7.545s3.38 7.545 7.556 7.545h3.056v.001c2.524 14.416 14.111 21.525 25.728 21.525 11.705 0 23.44-7.237 25.914-21.525v-.001h3.067c4.177 0 7.545-3.391 7.545-7.545.001-4.176-3.378-7.556-7.544-7.556z" fill="#ffb69f"/></g><g><circle cx="127.775" cy="67" fill="#f0c020" r="60.603"/></g><g><path d="m160.558 244.604c-1.381 0-2.5-1.119-2.5-2.5v-3c0-1.381 1.119-2.5 2.5-2.5s2.5 1.119 2.5 2.5v3c0 1.38-1.12 2.5-2.5 2.5zm-.315-13.041c-1.35-.291-2.208-1.621-1.917-2.971.487-2.262 1.608-4.32 3.244-5.955l14.164-14.158c.977-.976 2.559-.976 3.536.001.976.977.976 2.56 0 3.536l-14.165 14.158c-.954.952-1.607 2.152-1.891 3.471-.289 1.339-1.609 2.21-2.971 1.918z" fill="#c5e5fe"/></g><g><path d="m162.835 105.596c-.977-.976-.977-2.559 0-3.535 9.349-9.35 14.498-21.802 14.498-35.061 0-27.434-22.118-49.559-49.558-49.559-8.937 0-17.691 2.393-25.317 6.918-1.187.708-2.721.313-3.426-.873-.705-1.188-.313-2.722.874-3.426 8.398-4.984 18.035-7.619 27.869-7.619 30.196 0 54.558 24.356 54.558 54.559 0 14.595-5.669 28.302-15.962 38.596-.976.976-2.559.976-3.536 0zm-73.656-73.657c-.977-.977-.977-2.559 0-3.535.734-.735 1.503-1.461 2.284-2.158 1.03-.921 2.61-.829 3.53.2.92 1.03.83 2.61-.2 3.53-.711.634-1.41 1.295-2.079 1.963-.976.977-2.56.977-3.535 0z" fill="#f8e5b0"/></g><path d="m84.986 193.889c.168-.168.322-.167.489-.001l14.175 14.176c2.263 2.264 5.272 3.51 8.474 3.51h39.751c3.201 0 6.21-1.246 8.473-3.51l14.178-14.178c.135-.135.354-.136.488-.001l14.774 14.775s0 0 0 0l1.344 1.344c.083.084.101.179.101.244s-.018.16-.101.243l-18.861 18.853c-.469.47-.732 1.105-.732 1.769v18.49c0 1.381 1.119 2.5 2.5 2.5s2.5-1.119 2.5-2.5v-17.454l18.128-18.12c1.865-1.864 2.157-4.878.38-7.098l20.78-20.771c.97-.971.97-2.561 0-3.53-.95-.95-2.59-.95-3.54 0l-20.734 20.725-9.891-9.892 44.771-44.78c2.707-2.714 7.137-2.769 9.905.007 2.714 2.7 2.739 7.155-.004 9.898-.01.01-.016.022-.026.032l-9.87 9.87c-1.004.983-.972 2.578 0 3.529 1 1.002 2.584.948 3.53 0l9.877-9.877c.008-.008.017-.012.024-.02 4.741-4.741 4.63-12.368.002-16.972-4.686-4.698-12.288-4.702-16.977-.002l-44.811 44.82c-2.096-1.669-5.154-1.56-7.094.38l-14.178 14.179c-1.319 1.318-3.073 2.045-4.938 2.045h-3.266c5.231-3.521 9.439-8.968 11.243-16.522 7.43 0 11.082-5.029 11.082-10.045 0-5.328-4.227-10.056-10.21-10.056v-7.817l2.567-2.605c6.911-6.981 5.772-18.561-2.31-24.07l-4.752-3.251c-1.489-1.02-3.533-.168-3.868 1.598-.582 3.066-3.27 5.292-6.392 5.292-.013 0-.026.004-.039.004h-5.251c-1.38 0-2.5 1.12-2.5 2.5 0 1.37 1.12 2.5 2.5 2.5h5.29c.041 0 .078-.01.119-.012 4.23-.044 7.998-2.391 9.96-5.947l2.113 1.445c5.508 3.755 6.29 11.661 1.572 16.428l-2.545 2.584h-48.921v-5.101c0-5.175 4.209-9.386 9.387-9.4.009 0 .017.003.026.003h3c1.38 0 2.5-1.13 2.5-2.5 0-1.38-1.12-2.5-2.5-2.5h-2.962c-.013 0-.025-.004-.039-.004-7.947 0-14.412 6.46-14.412 14.401 0 7.89-.01 5.847-.01 16.464-5.913 0-10.19 4.69-10.19 10.045 0 4.837 3.468 10.045 11.087 10.045 1.823 7.557 6.009 13.002 11.197 16.522h-3.227c-1.866 0-3.62-.727-4.938-2.045l-14.175-14.176c-1.879-1.88-4.891-2.138-7.09-.385l-44.818-44.818c-4.708-4.708-12.306-4.681-16.969-.005-4.684 4.661-4.7 12.284-.004 16.979l44.818 44.818c-1.778 2.229-1.468 5.238.386 7.09l18.117 18.117v17.455c0 1.381 1.119 2.5 2.5 2.5s2.5-1.119 2.5-2.5v-18.49c0-.663-.263-1.299-.732-1.768l-18.849-18.85c-.134-.135-.136-.353 0-.488.346-.346-2.741 2.743 16.118-16.118zm71.743-18.939c3.165 0 5.206 2.434 5.206 5.056 0 2.599-2.001 5.045-5.276 5.045.025-.364.07-1.822.07-2.069zm-62.662 5.056c0-2.639 2.076-5.045 5.19-5.045v8.025c0 .646.035 1.455.079 2.064-3.24.001-5.269-2.432-5.269-5.044zm10.195 2.975c0-16.816-.005-4.015-.005-19.384h47.467v19.389c0 13.207-9.972 23.587-23.929 23.587-13.982-.062-23.533-10.599-23.533-23.592zm-80.595-34.298c2.735-2.742 7.162-2.737 9.901.002l44.776 44.776-9.903 9.903-44.776-44.776c-2.734-2.735-2.732-7.186.002-9.905z"/><path d="m137.98 192.28c.48-1.29-.17-2.73-1.46-3.211-1.27-.47-2.76.211-3.22 1.461-.83 2.189-2.96 3.67-5.3 3.67-2.35 0-4.48-1.471-5.3-3.66-.46-1.26-1.95-1.95-3.21-1.48-.63.24-1.13.7-1.4 1.311-.28.6-.31 1.279-.07 1.91 1.53 4.13 5.54 6.909 9.98 6.92 4.42-.012 8.44-2.781 9.98-6.921z"/><path d="m127.995 185.6c1.381 0 2.5-1.119 2.5-2.5v-7.048c0-1.381-1.119-2.5-2.5-2.5s-2.5 1.119-2.5 2.5v7.048c0 1.38 1.119 2.5 2.5 2.5z"/><circle cx="126.68" cy="141.6" r="2.5"/><path d="m119.848 176.052c0-1.381-1.119-2.5-2.5-2.5h-3.241c-1.381 0-2.5 1.119-2.5 2.5s1.119 2.5 2.5 2.5h3.241c1.381 0 2.5-1.119 2.5-2.5z"/><path d="m138.652 178.552h3.241c1.381 0 2.5-1.119 2.5-2.5s-1.119-2.5-2.5-2.5h-3.241c-1.381 0-2.5 1.119-2.5 2.5s1.119 2.5 2.5 2.5z"/><path d="m215.36 175.56c-.97.971-.97 2.561 0 3.53.973.973 2.563.976 3.54 0 .973-.973.976-2.552 0-3.53-.94-.951-2.59-.951-3.54 0z"/><path d="m94.671 67c0 18.253 14.85 33.104 33.103 33.104s33.104-14.851 33.104-33.104c0-1.381-1.119-2.5-2.5-2.5s-2.5 1.119-2.5 2.5c0 15.496-12.607 28.104-28.104 28.104s-28.103-12.608-28.103-28.104c0-1.381-1.119-2.5-2.5-2.5s-2.5 1.119-2.5 2.5z"/><path d="m190.878 67c0-34.795-28.308-63.104-63.104-63.104-.011 0-.021.003-.032.003-10.443.003-20.797 2.613-29.942 7.551-1.21.659-1.66 2.18-1.01 3.39.686 1.263 2.25 1.644 3.39 1.01 8.42-4.55 17.96-6.95 27.59-6.95.008 0 .016-.002.024-.002 32.03.011 58.084 26.072 58.084 58.103 0 32.038-26.065 58.104-58.104 58.104-32.038 0-58.103-26.065-58.103-58.104 0-.004-.001-.008-.001-.012.003-14.666 5.483-28.662 15.43-39.429.94-1.01.88-2.59-.13-3.529-.98-.9-2.64-.83-3.54.14-10.81 11.679-16.76 26.898-16.76 42.829 0 .007.002.013.002.02.011 34.786 28.314 63.084 63.103 63.084 34.795 0 63.103-28.309 63.103-63.104z"/><path d="m111.729 55.323c1.381 0 2.5-1.119 2.5-2.5v-4.775c0-4.354-3.542-7.896-7.896-7.896s-7.896 3.542-7.896 7.896v4.775c0 1.381 1.119 2.5 2.5 2.5s2.5-1.119 2.5-2.5v-4.775c0-1.597 1.299-2.896 2.896-2.896s2.896 1.299 2.896 2.896v4.775c0 1.381 1.119 2.5 2.5 2.5z"/><path d="m154.613 55.323c1.381 0 2.5-1.119 2.5-2.5v-4.775c0-4.354-3.542-7.896-7.896-7.896s-7.896 3.542-7.896 7.896v4.775c0 1.381 1.119 2.5 2.5 2.5s2.5-1.119 2.5-2.5v-4.775c0-1.597 1.299-2.896 2.896-2.896s2.896 1.299 2.896 2.896v4.775c0 1.381 1.119 2.5 2.5 2.5z"/><path d="m92.16 21.09c1.09-.85 1.29-2.42.44-3.51-.82-1.061-2.45-1.271-3.51-.44-1.114.879-1.261 2.459-.44 3.5.868 1.121 2.448 1.27 3.51.45z"/></g></svg>