<svg id="Layer_1" viewBox="0 0 512 512" xmlns="http://www.w3.org/2000/svg" data-name="Layer 1"><path d="m22.264 44.092h309.754a22.35 22.35 0 0 1 22.293 22.294v385.027a22.325 22.325 0 0 1 -22.293 22.265h-309.754a22.319 22.319 0 0 1 -22.264-22.265v-385.027a22.344 22.344 0 0 1 22.264-22.294z" fill="#69a7ff" fill-rule="evenodd"/><path d="m40.391 72.535h273.529a11.964 11.964 0 0 1 11.948 11.948v348.833a11.983 11.983 0 0 1 -11.948 11.948h-273.529a11.983 11.983 0 0 1 -11.948-11.948v-348.833a11.964 11.964 0 0 1 11.948-11.948z" fill="#d5e3f2" fill-rule="evenodd"/><path d="m112.722 32.552h42.344v-.321a22.09 22.09 0 1 1 44.179 0v.321h42.344a5.547 5.547 0 0 1 5.537 5.508v44.092h-139.941v-44.092a5.528 5.528 0 0 1 5.537-5.508z" fill="#4d6c8f" fill-rule="evenodd"/><path d="m177.1 39.429a7.2 7.2 0 0 1 0-14.4h.117a7.2 7.2 0 1 1 0 14.4z" fill="#d5e3f2"/><path d="m137.551 137.464a7.2 7.2 0 1 1 0-14.4h156.232a7.2 7.2 0 0 1 0 14.4zm0 257.268a7.2 7.2 0 0 1 0-14.4h156.232a7.2 7.2 0 0 1 0 14.4zm0-36.749a7.2 7.2 0 1 1 0-14.4h156.232a7.2 7.2 0 0 1 0 14.4zm0-36.748a7.2 7.2 0 1 1 0-14.4h156.232a7.2 7.2 0 0 1 0 14.4zm0-36.778a7.184 7.184 0 1 1 0-14.367h156.232a7.184 7.184 0 1 1 0 14.367zm0-36.748a7.2 7.2 0 1 1 0-14.4h156.232a7.2 7.2 0 0 1 0 14.4zm0-36.748a7.2 7.2 0 0 1 0-14.4h156.232a7.2 7.2 0 0 1 0 14.4zm0-36.749a7.2 7.2 0 1 1 0-14.4h156.232a7.2 7.2 0 0 1 0 14.4z" fill="#4d6c8f"/><path d="m107.243 125.166a7.192 7.192 0 0 1 10.171 10.171l-36.748 36.748a7.159 7.159 0 0 1 -10.171 0l-15.067-15.037a7.2 7.2 0 1 1 10.171-10.2l10 9.995z" fill="#fb4455"/><path d="m107.243 198.663a7.2 7.2 0 1 1 10.171 10.2l-36.748 36.748a7.213 7.213 0 0 1 -10.171 0l-15.067-15.067a7.192 7.192 0 0 1 10.172-10.171l10 9.967z" fill="#69a7ff"/><path d="m107.243 272.189a7.192 7.192 0 0 1 10.171 10.17l-36.748 36.748a7.159 7.159 0 0 1 -10.171 0l-15.067-15.066a7.192 7.192 0 0 1 10.172-10.171l10 9.967z" fill="#2eb851"/><path d="m107.243 345.685a7.192 7.192 0 1 1 10.171 10.171l-36.748 36.777a7.211 7.211 0 0 1 -10.171 0l-15.067-15.066a7.192 7.192 0 1 1 10.172-10.167l10 9.967z" fill="#ffab02"/><path d="m480.002 295.823v206.065h-256.627v-206.065l52.893-66.474h150.841z" fill="#e89e54" fill-rule="evenodd"/><path d="m223.375 295.823h256.627l-52.893-66.474h-150.841z" fill="#faba7b" fill-rule="evenodd"/><path d="m335.923 229.349h15.766 15.766l10.287 66.474v65.249l-13.027-19.321-13.026 19.321-13.027-19.321-13.027 19.321v-65.249z" fill="#fb4455" fill-rule="evenodd"/><path d="m446.75 194.524a65.235 65.235 0 1 0 -65.22-65.22 65.358 65.358 0 0 0 65.22 65.22z" fill="#2eb851" fill-rule="evenodd"/><path d="m473.94 101.328a7.192 7.192 0 0 1 10.171 10.17l-45.783 45.782a7.21 7.21 0 0 1 -10.17 0l-18.768-18.767a7.2 7.2 0 0 1 10.2-10.171l13.668 13.668z" fill="#d5e3f2"/><path d="m401.959 455.872a7.2 7.2 0 1 1 0-14.4h52.194a7.2 7.2 0 0 1 0 14.4zm0 24.917a7.2 7.2 0 0 1 0-14.4h52.194a7.2 7.2 0 0 1 0 14.4z" fill="#db8c3d"/><path d="m325.635 295.823h52.107v65.249l-13.027-19.321-13.026 19.321-13.027-19.321-13.027 19.321z" fill="#e82e41" fill-rule="evenodd"/><path d="m467.383 295.823h12.618v206.065h-12.618z" fill="#db8c3d"/><g fill-rule="evenodd"><path d="m414.461 229.349 52.922 66.474h12.619l-52.893-66.474z" fill="#f5ad65"/><path d="m311.909 72.535v156.814h13.959v-144.866a11.964 11.964 0 0 0 -11.948-11.948z" fill="#b7cfe8"/><path d="m325.868 84.483v144.866h28.443v-162.963a22.35 22.35 0 0 0 -22.293-22.294h-42.4a22.35 22.35 0 0 1 22.293 22.294v6.149h2.011a11.964 11.964 0 0 1 11.948 11.948z" fill="#4c8fed"/><path d="m496.059 129.3a65.25 65.25 0 0 1 -57.259 64.758 65.249 65.249 0 1 0 0-129.508 65.25 65.25 0 0 1 57.259 64.75z" fill="#1ca63e"/><path d="m231.768 66.794h-124.583v15.358h139.941v-44.092a5.547 5.547 0 0 0 -5.537-5.508h-9.821z" fill="#3b5c82"/></g></svg>