<?xml version="1.0" encoding="iso-8859-1"?>
<!-- Generator: Adobe Illustrator 19.0.0, SVG Export Plug-In . SVG Version: 6.00 Build 0)  -->
<svg version="1.1" id="Capa_1" xmlns="http://www.w3.org/2000/svg" xmlns:xlink="http://www.w3.org/1999/xlink" x="0px" y="0px"
	 viewBox="0 0 512 512" style="enable-background:new 0 0 512 512;" xml:space="preserve">
<circle style="fill:#FFAA20;" cx="256" cy="256" r="256"/>
<path style="fill:#FF8A00;" d="M512,256c0-6.936-0.285-13.804-0.827-20.6L364.79,89.14c-4.782-5.008-11.513-8.14-18.942-8.14
	H135.742v92.44h-12.453c-7.067,0-12.796,5.729-12.796,12.796v2.366c0,3.561,1.457,6.778,3.806,9.095l21.442,21.404v91.501h-12.453
	c-7.067,0-12.796,5.729-12.796,12.796v2.366c0,3.501,1.408,6.669,3.688,8.977l21.561,21.523V431l77.411,77.411
	C227.087,510.759,241.398,512,256,512C397.385,512,512,397.385,512,256z"/>
<path style="fill:#FFFFFF;" d="M345.849,431H135.742V81h210.107c14.42,0,26.218,11.798,26.218,26.218v297.564
	C372.067,419.202,360.268,431,345.849,431z"/>
<path style="fill:#FFF5CA;" d="M372.07,107.22v297.56c0,14.42-11.8,26.22-26.22,26.22H256V81h89.85
	C360.27,81,372.07,92.8,372.07,107.22z"/>
<g>
	<path style="fill:#004DB6;" d="M148.195,201.398h-24.906c-7.067,0-12.796-5.729-12.796-12.796v-2.366
		c0-7.067,5.729-12.796,12.796-12.796h24.906c7.067,0,12.796,5.729,12.796,12.796v2.366
		C160.991,195.669,155.262,201.398,148.195,201.398z"/>
	<path style="fill:#004DB6;" d="M148.195,338.56h-24.906c-7.067,0-12.796-5.729-12.796-12.796v-2.366
		c0-7.067,5.729-12.796,12.796-12.796h24.906c7.067,0,12.796,5.729,12.796,12.796v2.366
		C160.991,332.831,155.262,338.56,148.195,338.56z"/>
</g>
<path style="fill:#FF3100;" d="M223.439,128.751c-14.338,0-26.069,11.731-26.069,26.069v20.649c0,10.873,6.748,20.241,16.261,24.137
	v86.077h19.617v-86.077c9.513-3.896,16.261-13.264,16.261-24.137V154.82C249.509,140.482,237.777,128.751,223.439,128.751z"/>
<path style="fill:#BB1000;" d="M303.777,128.751v37.555c0,2.697-2.207,4.904-4.904,4.904s-4.904-2.207-4.904-4.904v-37.555h-10.97
	v37.555c0,2.697-2.207,4.904-4.904,4.904s-4.904-2.207-4.904-4.904v-37.555h-10.776v46.718c0,10.873,6.748,20.241,16.261,24.137
	v86.077h19.617v-86.077c9.513-3.896,16.261-13.264,16.261-24.137v-46.718L303.777,128.751L303.777,128.751z"/>
<rect x="194.53" y="307.36" style="fill:#00A8FF;" width="122.86" height="13.938"/>
<rect x="256" y="307.36" style="fill:#0089FF;" width="61.39" height="13.94"/>
<rect x="194.53" y="338.34" style="fill:#00A8FF;" width="122.86" height="13.938"/>
<rect x="256" y="338.34" style="fill:#0089FF;" width="61.39" height="13.94"/>
<rect x="194.53" y="369.31" style="fill:#00A8FF;" width="122.86" height="13.938"/>
<rect x="256" y="369.31" style="fill:#0089FF;" width="61.39" height="13.94"/>
<g>
</g>
<g>
</g>
<g>
</g>
<g>
</g>
<g>
</g>
<g>
</g>
<g>
</g>
<g>
</g>
<g>
</g>
<g>
</g>
<g>
</g>
<g>
</g>
<g>
</g>
<g>
</g>
<g>
</g>
</svg>
