<svg xmlns="http://www.w3.org/2000/svg" version="1.1" xmlns:xlink="http://www.w3.org/1999/xlink" width="512" height="512" x="0" y="0" viewBox="0 0 512 512" style="enable-background:new 0 0 512 512" xml:space="preserve" class=""><g><path d="M408.5 95.005h-25V34.991c0-11.197-5.417-21.799-14.49-28.36s-20.839-8.386-31.473-4.878L92.536 82.559A34.94 34.94 0 0 0 68.5 115.798V477c0 19.299 15.701 35 35 35h305c19.299 0 35-15.701 35-35V130.005c0-19.298-15.701-35-35-35zm5 381.995c0 2.757-2.243 5-5 5h-305c-2.757 0-5-2.243-5-5V130.005c0-2.757 2.243-5 5-5h305c2.757 0 5 2.243 5 5zM346.934 30.243c2.112-.696 3.723.138 4.497.697.773.559 2.07 1.828 2.07 4.051v60.015H150.578z" fill="#18681c" opacity="1" data-original="#000000" class=""></path><path d="M156 298.481h200c8.284 0 15-6.716 15-15s-6.716-15-15-15h-4.345c-6.466-41.398-39.257-74.189-80.655-80.655v-7.516c0-8.284-6.716-15-15-15s-15 6.716-15 15v7.516c-41.398 6.466-74.189 39.257-80.655 80.655H156c-8.284 0-15 6.716-15 15s6.716 15 15 15zm100-81.818c31.688 0 58.294 22.174 65.121 51.818H190.879c6.827-29.644 33.434-51.818 65.121-51.818zM161.817 339.005c-8.284 0-15 6.716-15 15s6.716 15 15 15h72c8.284 0 15-6.716 15-15s-6.716-15-15-15zM352.25 399.005h-192.5c-8.284 0-15 6.716-15 15s6.716 15 15 15h192.5c8.284 0 15-6.716 15-15s-6.716-15-15-15z" fill="#18681c" opacity="1" data-original="#000000" class=""></path></g></svg>